<?xml version="1.0" encoding="UTF-8" standalone="no"?>
<svg
   xmlns:dc="http://purl.org/dc/elements/1.1/"
   xmlns:cc="http://creativecommons.org/ns#"
   xmlns:rdf="http://www.w3.org/1999/02/22-rdf-syntax-ns#"
   xmlns:svg="http://www.w3.org/2000/svg"
   xmlns="http://www.w3.org/2000/svg"
   xmlns:sodipodi="http://sodipodi.sourceforge.net/DTD/sodipodi-0.dtd"
   xmlns:inkscape="http://www.inkscape.org/namespaces/inkscape"
   enable-background="new 0 0 64 64"
   height="64px"
   id="Layer_1"
   version="1.1"
   viewBox="0 0 64 64"
   width="64px"
   xml:space="preserve"
   inkscape:version="0.91 r13725"
   sodipodi:docname="buildConfig.svg"><metadata
     id="metadata25"><rdf:RDF><cc:Work
         rdf:about=""><dc:format>image/svg+xml</dc:format><dc:type
           rdf:resource="http://purl.org/dc/dcmitype/StillImage" /><dc:title></dc:title></cc:Work></rdf:RDF></metadata><defs
     id="defs23" /><sodipodi:namedview
     pagecolor="#ffffff"
     bordercolor="#666666"
     borderopacity="1"
     objecttolerance="10"
     gridtolerance="10"
     guidetolerance="10"
     inkscape:pageopacity="0"
     inkscape:pageshadow="2"
     inkscape:window-width="1134"
     inkscape:window-height="908"
     id="namedview21"
     showgrid="false"
     inkscape:zoom="3.6875"
     inkscape:cx="-1.8983051"
     inkscape:cy="32"
     inkscape:window-x="24"
     inkscape:window-y="43"
     inkscape:window-maximized="0"
     inkscape:current-layer="Layer_1" /><g
     id="g3"
     transform="matrix(0.7307092,0,0,0.7307092,17.931239,6.217048)"><path
       d="M 61.865,31.156 56.016,28.444 C 55.168,28.048 54.191,28.047 53.34,28.436 l -20.01,9.148 c -0.844,0.385 -1.815,0.385 -2.658,0 L 10.658,28.437 C 9.808,28.047 8.83,28.049 7.982,28.445 l -5.849,2.712 c -0.849,0.395 -0.845,1.596 0.007,1.986 l 28.531,13.041 c 0.843,0.388 1.814,0.388 2.658,0 L 61.858,33.143 c 0.853,-0.391 0.857,-1.592 0.007,-1.987 z"
       id="path5"
       style="fill:#c83737"
       inkscape:connector-curvature="0" /><path
       d="M 61.865,47.877 56.016,45.161 C 55.168,44.769 54.191,44.765 53.34,45.153 l -20.01,9.15 c -0.844,0.386 -1.815,0.386 -2.658,0 L 10.658,45.154 C 9.808,44.766 8.83,44.77 7.982,45.162 L 2.133,47.878 C 1.284,48.27 1.288,49.471 2.14,49.861 l 28.531,13.044 c 0.843,0.386 1.814,0.386 2.658,0 L 61.859,49.86 c 0.852,-0.39 0.856,-1.591 0.006,-1.983 z"
       id="path7"
       style="fill:#d35f5f"
       inkscape:connector-curvature="0" /><path
       d="M 61.865,31.156 59.96,30.273 33.33,42.447 c -0.844,0.386 -1.815,0.386 -2.658,0 L 4.04,30.273 2.134,31.156 c -0.849,0.395 -0.845,1.596 0.007,1.986 l 28.531,13.041 c 0.843,0.388 1.814,0.388 2.658,0 L 61.859,33.142 c 0.852,-0.39 0.856,-1.591 0.006,-1.986 z"
       id="path9"
       style="fill:#800000"
       inkscape:connector-curvature="0" /><path
       d="M 61.865,47.877 59.96,46.991 33.33,59.166 c -0.844,0.388 -1.815,0.388 -2.658,0 L 4.039,46.991 2.134,47.877 C 1.285,48.269 1.289,49.47 2.141,49.86 l 28.531,13.044 c 0.843,0.386 1.814,0.386 2.658,0 L 61.859,49.86 c 0.852,-0.39 0.856,-1.591 0.006,-1.983 z"
       id="path11"
       style="fill:#800000"
       inkscape:connector-curvature="0" /><path
       d="M 61.865,14.29 33.555,1.148 c -0.986,-0.456 -2.122,-0.456 -3.108,0 L 2.136,14.29 c -0.851,0.394 -0.847,1.595 0.005,1.986 L 30.67,29.317 c 0.844,0.387 1.815,0.387 2.659,0 l 28.53,-13.041 c 0.852,-0.391 0.855,-1.592 0.006,-1.986 z"
       id="path13"
       inkscape:connector-curvature="0"
       style="fill:#303030" /><path
       d="M 61.865,14.29 33.555,1.148 c -0.986,-0.456 -2.122,-0.456 -3.108,0 L 2.136,14.29 c -0.851,0.394 -0.847,1.595 0.005,1.986 L 30.67,29.317 c 0.844,0.387 1.815,0.387 2.659,0 l 28.53,-13.041 c 0.852,-0.391 0.855,-1.592 0.006,-1.986 z"
       id="path15"
       style="fill:#ff0000"
       inkscape:connector-curvature="0" /><path
       d="M 61.865,14.29 33.568,1.148 C 33.066,0.917 33,0.805 32,0.809 l 0,28.796 c 0,0.004 0.912,-0.091 1.342,-0.287 L 61.866,16.277 c 0.852,-0.392 0.848,-1.593 -10e-4,-1.987 z"
       id="path17"
       style="fill:#ff5555"
       inkscape:connector-curvature="0" /><path
       d="M 61.865,14.29 59.962,13.406 33.329,25.582 c -0.844,0.387 -1.815,0.387 -2.659,0 L 4.038,13.406 2.136,14.29 c -0.851,0.394 -0.847,1.595 0.005,1.986 L 30.67,29.317 c 0.844,0.387 1.815,0.387 2.659,0 l 28.53,-13.041 c 0.852,-0.391 0.855,-1.592 0.006,-1.986 z"
       id="path19"
       style="fill:#800000"
       inkscape:connector-curvature="0" /></g><g
     id="cogwheels"
     transform="matrix(0.73348986,0,0,0.73348986,-3.1974493,10.192157)"><g
       id="g3419"><path
         id="path3421"
         d="m 22,31.001 c -4.965,0 -9,4.035 -9,9 0,4.965 4.035,9 9,9 4.969,0 9,-4.035 9,-9 0,-4.965 -4.031,-9 -9,-9 z m 0,17 c -4.415,0 -8,-3.585 -8,-8 0,-4.415 3.585,-8 8,-8 4.416,0 8,3.585 8,8 0,4.415 -3.584,8 -8,8 z"
         inkscape:connector-curvature="0"
         style="fill:#800000" /><path
         id="path3423"
         d="m 23,24.001 c 0.074,0 0.201,0.104 0.216,0.177 l 0.606,3.035 c 0.014,0.069 0.026,0.152 0.044,0.268 l 0.105,0.672 0.663,0.149 c 1.335,0.3 2.603,0.827 3.769,1.566 l 0.573,0.363 0.549,-0.398 0.053,-0.038 c 0.06,-0.044 0.118,-0.087 0.173,-0.123 l 2.576,-1.719 c 0.012,-0.008 0.051,-0.022 0.11,-0.022 0.09,0 0.152,0.033 0.169,0.05 l 1.414,1.414 c 0.053,0.053 0.068,0.217 0.028,0.277 l -1.722,2.581 c -0.039,0.06 -0.091,0.128 -0.156,0.217 l -0.405,0.551 0.366,0.578 c 0.74,1.165 1.268,2.433 1.567,3.768 l 0.149,0.662 0.671,0.106 0.05,0.007 0,10e-4 c 0.077,0.012 0.154,0.023 0.215,0.035 l 3.038,0.607 C 37.896,38.8 38,38.927 38,39.001 l 0,2 c 0,0.074 -0.104,0.201 -0.177,0.216 l -3.035,0.606 c -0.064,0.013 -0.142,0.024 -0.219,0.036 l -0.05,0.008 0,0 -0.671,0.106 -0.149,0.662 c -0.3,1.335 -0.827,2.603 -1.567,3.768 l -0.352,0.599 0.406,0.551 c 0.05,0.068 0.102,0.137 0.143,0.199 l 1.719,2.577 c 0.042,0.063 0.025,0.226 -0.027,0.278 l -1.415,1.415 c -0.021,0.021 -0.087,0.05 -0.169,0.05 -0.059,0 -0.097,-0.015 -0.107,-0.022 L 29.75,50.328 C 29.692,50.29 29.626,50.241 29.532,50.172 l -0.551,-0.403 -0.576,0.365 c -1.167,0.739 -2.435,1.267 -3.77,1.566 l -0.669,0.182 -0.104,0.673 c -0.013,0.082 -0.025,0.165 -0.038,0.23 l -0.607,3.038 c -0.015,0.073 -0.142,0.178 -0.216,0.178 l -2,0 c -0.074,0 -0.201,-0.104 -0.216,-0.177 L 20.177,52.779 C 20.165,52.722 20.156,52.656 20.146,52.59 L 20.135,52.521 20.03,51.849 19.367,51.7 c -1.332,-0.3 -2.599,-0.827 -3.766,-1.567 l -0.575,-0.364 -0.55,0.4 -0.052,0.038 c -0.06,0.044 -0.119,0.088 -0.174,0.124 l -2.577,1.719 c -0.012,0.009 -0.05,0.023 -0.108,0.023 -0.082,0 -0.148,-0.029 -0.17,-0.051 L 9.98,50.607 C 9.928,50.555 9.912,50.392 9.953,50.331 l 1.722,-2.58 c 0.034,-0.053 0.078,-0.112 0.122,-0.172 l 0.038,-0.052 0.4,-0.55 -0.364,-0.575 c -0.74,-1.167 -1.268,-2.434 -1.567,-3.766 L 10.155,41.973 9.48,41.867 9.411,41.856 C 9.345,41.846 9.278,41.836 9.216,41.824 L 6.178,41.217 C 6.104,41.202 6,41.075 6,41.001 l 0,-2 C 6,38.927 6.104,38.8 6.177,38.785 l 3.045,-0.608 c 0.057,-0.012 0.123,-0.021 0.189,-0.031 l 0.069,-0.011 0.672,-0.105 0.149,-0.663 c 0.3,-1.332 0.827,-2.599 1.567,-3.766 l 0.364,-0.575 -0.4,-0.55 -0.038,-0.052 C 11.75,32.364 11.706,32.305 11.67,32.25 L 9.951,29.673 C 9.909,29.61 9.926,29.447 9.978,29.395 l 1.415,-1.415 c 0.021,-0.021 0.086,-0.049 0.168,-0.049 0.06,0 0.099,0.015 0.108,0.021 l 2.581,1.722 c 0.052,0.034 0.111,0.078 0.171,0.122 l 0.052,0.038 0.55,0.4 0.577,-0.364 c 1.167,-0.74 2.434,-1.268 3.766,-1.567 l 0.663,-0.149 0.105,-0.672 0.011,-0.069 c 0.01,-0.066 0.02,-0.133 0.032,-0.195 L 20.784,24.18 C 20.799,24.107 20.926,24.002 21,24.002 l 2,0 0,-10e-4 z m 0,-1 -2,0 c -0.55,0 -1.088,0.441 -1.196,0.98 l -0.607,3.039 c -0.019,0.09 -0.034,0.2 -0.051,0.307 -1.472,0.331 -2.846,0.914 -4.082,1.698 -0.09,-0.065 -0.182,-0.134 -0.26,-0.186 l -2.578,-1.72 c -0.192,-0.128 -0.427,-0.189 -0.663,-0.189 -0.324,0 -0.65,0.117 -0.876,0.343 l -1.414,1.414 c -0.39,0.389 -0.458,1.081 -0.153,1.539 l 1.72,2.578 c 0.052,0.078 0.12,0.17 0.186,0.26 -0.784,1.236 -1.367,2.61 -1.698,4.082 -0.106,0.017 -0.217,0.032 -0.307,0.051 L 5.98,37.805 C 5.441,37.913 5,38.451 5,39.001 l 0,2 c 0,0.55 0.441,1.088 0.98,1.196 l 3.039,0.607 c 0.09,0.019 0.2,0.034 0.307,0.051 0.331,1.472 0.914,2.846 1.698,4.082 -0.065,0.09 -0.134,0.182 -0.186,0.26 l -1.72,2.578 c -0.305,0.458 -0.236,1.15 0.153,1.539 l 1.414,1.414 c 0.226,0.226 0.553,0.344 0.877,0.344 0.235,0 0.47,-0.063 0.662,-0.19 l 2.578,-1.72 c 0.078,-0.052 0.17,-0.12 0.26,-0.186 1.236,0.784 2.61,1.367 4.082,1.698 0.017,0.106 0.032,0.217 0.051,0.307 l 0.607,3.039 C 19.91,56.559 20.448,57 20.998,57 l 2,0 c 0.55,0 1.088,-0.441 1.196,-0.98 l 0.607,-3.039 c 0.018,-0.09 0.034,-0.199 0.051,-0.306 1.473,-0.331 2.848,-0.913 4.085,-1.697 0.088,0.064 0.179,0.132 0.257,0.184 l 2.578,1.72 c 0.192,0.128 0.427,0.19 0.662,0.19 0.325,0 0.651,-0.118 0.877,-0.344 l 1.414,-1.414 c 0.39,-0.389 0.458,-1.081 0.153,-1.539 l -1.72,-2.578 c -0.052,-0.078 -0.119,-0.169 -0.185,-0.258 0.785,-1.237 1.367,-2.612 1.698,-4.084 0.105,-0.017 0.216,-0.033 0.306,-0.051 l 3.039,-0.607 c 0.539,-0.108 0.98,-0.646 0.98,-1.196 l 0,-2 c 0,-0.55 -0.441,-1.088 -0.98,-1.196 l -3.039,-0.607 c -0.09,-0.018 -0.2,-0.034 -0.306,-0.051 -0.331,-1.472 -0.913,-2.847 -1.698,-4.084 0.065,-0.089 0.133,-0.18 0.185,-0.258 l 1.72,-2.578 c 0.304,-0.458 0.236,-1.149 -0.153,-1.539 l -1.414,-1.414 c -0.225,-0.226 -0.552,-0.343 -0.876,-0.343 -0.236,0 -0.471,0.062 -0.663,0.189 l -2.578,1.72 c -0.078,0.052 -0.169,0.119 -0.258,0.184 C 27.7,28.24 26.325,27.658 24.852,27.327 24.835,27.221 24.819,27.111 24.801,27.021 L 24.194,23.982 C 24.088,23.442 23.55,23.001 23,23.001 l 0,0 z"
         inkscape:connector-curvature="0"
         style="fill:#800000" /><path
         id="path3425"
         d="m 22,35.946 c -2.207,0 -4,1.816 -4,4.055 0,2.239 1.793,4.055 4,4.055 2.207,0 4,-1.816 4,-4.055 0,-2.239 -1.793,-4.055 -4,-4.055 z m 0,7.055 c -1.655,0 -3,-1.345 -3,-3 0,-1.655 1.345,-3 3,-3 1.655,0 3,1.345 3,3 0,1.655 -1.345,3 -3,3 z"
         inkscape:connector-curvature="0"
         style="fill:#800000" /><path
         id="path3427"
         d="m 57.36,16.359 -3.099,-0.017 c -0.121,-10e-4 -0.264,0.004 -0.409,0.012 -0.317,-0.605 -0.69,-1.173 -1.116,-1.691 0.063,-0.13 0.122,-0.258 0.169,-0.369 l 1.194,-2.86 C 54.31,10.927 54.112,10.26 53.656,9.954 L 51.998,8.835 C 51.735,8.658 51.391,8.605 51.073,8.666 50.841,8.711 50.623,8.817 50.458,8.979 l -2.203,2.18 c -0.085,0.084 -0.182,0.188 -0.279,0.295 -0.641,-0.201 -1.306,-0.333 -1.985,-0.401 -0.05,-0.138 -0.098,-0.271 -0.145,-0.383 L 44.67,7.801 C 44.461,7.293 43.848,6.963 43.309,7.069 L 41.345,7.45 c -0.539,0.105 -0.983,0.642 -0.986,1.191 l -0.017,3.099 c 0,0.121 0.005,0.264 0.012,0.409 -0.605,0.317 -1.173,0.689 -1.691,1.116 -0.131,-0.063 -0.259,-0.122 -0.37,-0.168 l -2.859,-1.195 c -0.213,-0.089 -0.454,-0.105 -0.687,-0.06 -0.318,0.062 -0.617,0.238 -0.794,0.503 l -1.119,1.658 c -0.308,0.456 -0.243,1.148 0.144,1.54 l 2.18,2.203 c 0.084,0.085 0.188,0.182 0.295,0.278 -0.201,0.642 -0.333,1.307 -0.401,1.986 -0.139,0.05 -0.271,0.098 -0.384,0.145 l -2.866,1.176 c -0.508,0.209 -0.839,0.822 -0.734,1.361 l 0.382,1.963 c 0.105,0.54 0.641,0.984 1.191,0.987 l 3.099,0.017 c 0.121,0 0.264,-0.004 0.409,-0.012 0.317,0.605 0.69,1.172 1.116,1.691 -0.063,0.131 -0.123,0.26 -0.17,0.37 l -1.195,2.86 c -0.211,0.507 -0.013,1.173 0.443,1.48 l 1.658,1.119 c 0.264,0.177 0.606,0.23 0.925,0.169 0.232,-0.045 0.45,-0.151 0.615,-0.313 l 2.203,-2.18 c 0.085,-0.084 0.182,-0.188 0.278,-0.296 0.642,0.201 1.307,0.334 1.986,0.402 0.05,0.138 0.098,0.271 0.145,0.383 L 45.33,34.2 c 0.209,0.509 0.822,0.839 1.361,0.733 l 1.964,-0.381 c 0.539,-0.105 0.983,-0.642 0.986,-1.191 l 0.016,-3.099 c 0.001,-0.121 -0.004,-0.264 -0.011,-0.409 0.605,-0.317 1.173,-0.69 1.691,-1.116 0.13,0.063 0.258,0.123 0.369,0.169 l 2.86,1.194 c 0.213,0.089 0.454,0.105 0.687,0.06 0.318,-0.062 0.617,-0.239 0.794,-0.503 l 1.119,-1.658 c 0.307,-0.456 0.242,-1.148 -0.145,-1.54 l -2.18,-2.203 c -0.084,-0.085 -0.188,-0.182 -0.295,-0.278 0.2,-0.642 0.333,-1.307 0.401,-1.987 0.138,-0.048 0.271,-0.096 0.383,-0.143 l 2.868,-1.177 c 0.508,-0.209 0.838,-0.822 0.732,-1.361 L 58.549,17.346 C 58.446,16.807 57.911,16.362 57.36,16.359 Z m 0.592,3.141 c 0.015,0.073 -0.064,0.218 -0.133,0.246 l -2.865,1.177 c -0.097,0.039 -0.213,0.082 -0.332,0.123 l -0.604,0.209 -0.063,0.637 c -0.061,0.616 -0.183,1.219 -0.361,1.786 l -0.19,0.61 0.474,0.43 c 0.093,0.084 0.183,0.168 0.256,0.241 l 2.179,2.203 c 0.053,0.053 0.068,0.216 0.026,0.277 l -1.117,1.658 c -0.017,0.024 -0.076,0.065 -0.156,0.082 -0.06,0.011 -0.099,0.004 -0.111,-0.002 l -2.86,-1.194 C 52,27.942 51.889,27.89 51.776,27.836 l -0.575,-0.277 -0.494,0.405 c -0.46,0.378 -0.973,0.717 -1.521,1.004 l -0.562,0.295 0.027,0.636 c 0.007,0.129 0.011,0.254 0.011,0.358 l -0.017,3.098 c 0,0.076 -0.105,0.202 -0.178,0.216 l -1.963,0.383 c -0.073,0.014 -0.218,-0.065 -0.246,-0.133 l -1.176,-2.865 c -0.04,-0.098 -0.083,-0.217 -0.125,-0.339 l -0.213,-0.599 -0.632,-0.063 c -0.616,-0.061 -1.219,-0.183 -1.786,-0.361 l -0.61,-0.19 -0.43,0.474 c -0.084,0.093 -0.168,0.183 -0.241,0.256 l -2.203,2.179 c -0.01,0.011 -0.044,0.032 -0.103,0.043 -0.088,0.018 -0.155,-0.003 -0.175,-0.017 l -1.658,-1.117 c -0.062,-0.043 -0.109,-0.199 -0.08,-0.268 l 1.193,-2.858 c 0.042,-0.097 0.095,-0.209 0.149,-0.324 l 0.274,-0.575 -0.403,-0.491 c -0.378,-0.46 -0.717,-0.973 -1.004,-1.521 l -0.298,-0.566 -0.64,0.033 c -0.126,0.006 -0.249,0.01 -0.352,0.011 l -3.099,-0.018 c -0.075,0 -0.201,-0.105 -0.215,-0.178 l -0.382,-1.963 c -0.014,-0.073 0.065,-0.218 0.133,-0.246 l 2.863,-1.175 c 0.1,-0.04 0.217,-0.084 0.34,-0.126 l 0.6,-0.212 0.063,-0.633 c 0.061,-0.616 0.183,-1.219 0.361,-1.786 l 0.19,-0.61 -0.474,-0.43 c -0.093,-0.084 -0.183,-0.168 -0.256,-0.241 l -2.18,-2.202 C 33.637,14.79 33.622,14.626 33.664,14.565 l 1.117,-1.658 c 0.017,-0.024 0.075,-0.065 0.156,-0.082 0.06,-0.011 0.099,-0.004 0.111,0.002 l 2.858,1.194 c 0.097,0.041 0.209,0.094 0.324,0.147 l 0.575,0.275 0.491,-0.403 c 0.46,-0.378 0.972,-0.717 1.521,-1.004 L 41.379,12.74 41.352,12.105 C 41.345,11.976 41.341,11.85 41.341,11.747 l 0.017,-3.099 c 0,-0.075 0.105,-0.201 0.178,-0.215 L 43.499,8.05 c 0.073,-0.015 0.218,0.064 0.246,0.132 l 1.176,2.866 c 0.04,0.098 0.083,0.217 0.125,0.339 l 0.213,0.599 0.632,0.063 c 0.616,0.061 1.219,0.183 1.786,0.361 l 0.61,0.19 0.43,-0.474 c 0.084,-0.093 0.168,-0.183 0.241,-0.256 L 51.161,9.691 C 51.171,9.68 51.205,9.659 51.264,9.648 51.352,9.63 51.42,9.65 51.439,9.665 l 1.658,1.117 c 0.062,0.042 0.109,0.199 0.08,0.268 l -1.194,2.86 c -0.041,0.095 -0.093,0.206 -0.147,0.319 l -0.277,0.575 0.405,0.494 c 0.378,0.46 0.717,0.973 1.004,1.521 l 0.298,0.566 0.64,-0.033 c 0.125,-0.006 0.249,-0.01 0.352,-0.011 l 3.099,0.018 c 0.074,0 0.201,0.105 0.215,0.178 l 0.38,1.963 z"
         inkscape:connector-curvature="0"
         style="fill:#800000" /><path
         id="path3429"
         d="m 44.236,17.075 c -2.17,0.421 -3.585,2.521 -3.162,4.689 0.421,2.168 2.521,3.585 4.689,3.162 2.168,-0.421 3.585,-2.521 3.162,-4.689 -0.42,-2.168 -2.521,-3.585 -4.689,-3.162 z m 1.337,6.871 c -1.627,0.315 -3.201,-0.746 -3.519,-2.372 -0.315,-1.626 0.745,-3.201 2.372,-3.519 1.626,-0.315 3.201,0.746 3.519,2.372 0.316,1.627 -0.746,3.202 -2.372,3.519 z"
         inkscape:connector-curvature="0"
         style="fill:#800000" /><path
         id="path3431"
         d="m 40.05,16.051 c -2.732,2.733 -2.732,7.167 0,9.9 2.733,2.732 7.167,2.732 9.899,0 2.733,-2.733 2.733,-7.167 0,-9.899 -2.732,-2.734 -7.166,-2.734 -9.899,-0.001 z m 9.192,9.192 c -2.342,2.343 -6.143,2.343 -8.484,0 -2.343,-2.342 -2.343,-6.143 0,-8.484 2.342,-2.343 6.143,-2.343 8.484,0 2.343,2.342 2.343,6.142 0,8.484 z"
         inkscape:connector-curvature="0"
         style="fill:#800000" /><path
         id="path3433"
         d="m 57.734,49.717 c 0.548,-0.053 1.063,-0.541 1.145,-1.085 l 0,-10e-4 c 0.076,-0.508 -0.223,-1.079 -0.675,-1.325 -0.033,-0.018 -0.065,-0.033 -0.1,-0.047 l -1.962,-0.814 c -0.05,-0.021 -0.116,-0.042 -0.172,-0.063 -0.07,-0.886 -0.288,-1.753 -0.641,-2.565 0.041,-0.047 0.089,-0.098 0.125,-0.141 l 1.349,-1.636 c 0.35,-0.426 0.369,-1.136 0.043,-1.578 l -10e-4,0 C 56.743,40.324 56.606,40.21 56.451,40.125 56.11,39.939 55.677,39.895 55.327,40.039 l -1.963,0.812 c -0.049,0.021 -0.11,0.051 -0.163,0.075 -0.418,-0.357 -0.879,-0.68 -1.382,-0.952 -0.291,-0.158 -0.589,-0.291 -0.89,-0.41 -0.003,-0.061 -0.004,-0.13 -0.01,-0.184 l -0.204,-2.113 c -0.04,-0.414 -0.329,-0.81 -0.703,-1.014 -0.12,-0.065 -0.249,-0.11 -0.382,-0.13 l -0.001,0 c -0.543,-0.082 -1.161,0.267 -1.373,0.774 l -0.814,1.962 c -0.021,0.05 -0.042,0.115 -0.063,0.171 -0.886,0.07 -1.752,0.288 -2.565,0.641 -0.047,-0.041 -0.097,-0.089 -0.139,-0.124 l -1.639,-1.35 c -0.054,-0.045 -0.113,-0.084 -0.176,-0.117 -0.425,-0.231 -1.014,-0.21 -1.4,0.074 l 0,0.002 c -0.443,0.326 -0.633,1.009 -0.423,1.518 l 0.811,1.963 c 0.021,0.049 0.05,0.108 0.075,0.162 -0.359,0.418 -0.68,0.879 -0.954,1.382 -0.158,0.291 -0.291,0.59 -0.409,0.89 -0.06,0.004 -0.129,0.005 -0.184,0.01 l -2.113,0.205 c -0.547,0.052 -1.062,0.54 -1.144,1.084 l 10e-4,0 c -0.077,0.508 0.221,1.08 0.674,1.326 0.033,0.018 0.065,0.033 0.1,0.048 l 1.962,0.813 c 0.05,0.021 0.114,0.041 0.17,0.063 0.069,0.887 0.287,1.754 0.64,2.568 -0.04,0.045 -0.088,0.095 -0.124,0.137 l -1.35,1.639 c -0.35,0.425 -0.368,1.134 -0.042,1.576 l 0.001,0 c 0.102,0.139 0.239,0.252 0.394,0.337 0.342,0.186 0.775,0.23 1.125,0.086 l 1.962,-0.811 c 0.049,-0.02 0.108,-0.05 0.161,-0.074 0.418,0.358 0.879,0.68 1.382,0.953 0.292,0.159 0.589,0.29 0.89,0.409 0.004,0.061 0.005,0.13 0.01,0.184 l 0.205,2.112 c 0.04,0.414 0.329,0.81 0.703,1.014 0.12,0.065 0.249,0.11 0.381,0.13 l 0.001,10e-4 c 0.544,0.081 1.161,-0.267 1.372,-0.774 l 0.814,-1.962 c 0.021,-0.05 0.042,-0.114 0.063,-0.171 0.887,-0.069 1.754,-0.288 2.568,-0.641 0.046,0.04 0.096,0.089 0.138,0.124 l 1.637,1.349 c 0.054,0.045 0.113,0.084 0.175,0.118 0.426,0.231 1.016,0.209 1.4,-0.076 l 0.001,0 c 0.442,-0.327 0.632,-1.01 0.423,-1.518 l -0.812,-1.963 c -0.021,-0.049 -0.051,-0.108 -0.075,-0.162 0.358,-0.419 0.679,-0.879 0.953,-1.382 0.159,-0.291 0.291,-0.59 0.41,-0.891 0.06,-0.003 0.13,-0.005 0.185,-0.01 l 2.117,-0.205 z m -2.206,-0.792 -0.068,0.004 -0.076,0.003 -0.64,0.035 -0.236,0.596 c -0.121,0.306 -0.234,0.554 -0.358,0.781 -0.231,0.426 -0.512,0.834 -0.834,1.211 l -0.41,0.479 0.257,0.576 0.043,0.091 0.021,0.046 0.811,1.962 c 0.034,0.082 -0.014,0.263 -0.083,0.325 l -0.011,0.008 C 53.889,55.083 53.722,55.1 53.602,55.034 L 53.6,55.033 51.967,53.687 51.92,53.645 51.85,53.581 51.373,53.16 50.79,53.413 c -0.719,0.312 -1.475,0.501 -2.249,0.563 l -0.641,0.051 -0.22,0.604 -0.021,0.059 -0.025,0.071 -0.814,1.96 c -0.035,0.085 -0.209,0.184 -0.302,0.17 -0.003,-10e-4 -0.021,-0.004 -0.051,-0.021 -0.105,-0.057 -0.18,-0.175 -0.185,-0.231 L 46.077,54.53 46.074,54.474 46.069,54.372 46.026,53.742 45.439,53.51 c -0.306,-0.121 -0.553,-0.234 -0.781,-0.358 -0.427,-0.231 -0.833,-0.513 -1.209,-0.834 l -0.493,-0.422 -0.586,0.278 -0.044,0.021 -0.003,10e-4 -0.067,0.031 -1.961,0.811 c -0.046,0.02 -0.164,0.016 -0.266,-0.04 -0.047,-0.025 -0.064,-0.049 -0.066,-0.051 l -0.011,-0.015 c -0.045,-0.083 -0.038,-0.266 0.018,-0.333 l 1.346,-1.633 0.044,-0.049 0.059,-0.064 0.425,-0.478 -0.254,-0.586 C 41.277,49.07 41.089,48.314 41.029,47.541 l -0.05,-0.628 -0.588,-0.227 -0.103,-0.038 -0.044,-0.015 -1.967,-0.817 c -0.094,-0.051 -0.176,-0.219 -0.164,-0.298 0.013,-0.09 0.161,-0.23 0.251,-0.239 l 2.11,-0.203 0.056,-0.003 0.102,-0.005 0.63,-0.043 0.232,-0.588 c 0.119,-0.3 0.236,-0.555 0.358,-0.779 0.232,-0.427 0.513,-0.833 0.834,-1.209 l 0.416,-0.485 -0.266,-0.581 -0.032,-0.07 -0.026,-0.058 -0.812,-1.963 c -0.035,-0.083 0.019,-0.277 0.091,-0.331 l 0.013,-0.009 c 0.065,-0.035 0.218,-0.046 0.332,0.016 l 0.003,0.002 1.633,1.345 0.045,0.041 0.074,0.067 0.477,0.418 0.582,-0.252 c 0.718,-0.313 1.474,-0.501 2.246,-0.562 l 0.628,-0.049 0.227,-0.589 0.038,-0.102 0.016,-0.046 0.814,-1.96 c 0.034,-0.083 0.211,-0.184 0.299,-0.17 l 0.01,0.001 c 0.011,0.003 0.026,0.009 0.044,0.019 0.105,0.057 0.18,0.175 0.186,0.23 l 0.203,2.11 0.003,0.061 0.005,0.09 0.038,0.636 0.592,0.235 c 0.306,0.121 0.553,0.234 0.78,0.357 0.426,0.232 0.833,0.512 1.209,0.834 l 0.486,0.415 0.58,-0.267 0.067,-0.031 0.062,-0.027 1.961,-0.811 c 0.045,-0.02 0.163,-0.017 0.265,0.039 0.037,0.021 0.06,0.041 0.068,0.053 0.055,0.074 0.049,0.275 -0.01,0.347 l -1.347,1.635 -0.041,0.046 -0.066,0.072 -0.417,0.477 0.251,0.581 c 0.313,0.718 0.5,1.474 0.561,2.246 l 0.05,0.628 0.588,0.227 0.1,0.037 0.048,0.018 1.967,0.816 c 0.093,0.051 0.175,0.219 0.163,0.3 -0.013,0.091 -0.16,0.229 -0.251,0.237 l -2.111,0.203 z"
         inkscape:connector-curvature="0"
         style="fill:#800000" /><path
         id="path3435"
         d="m 49.671,43.926 c -1.699,-0.924 -3.823,-0.295 -4.747,1.403 -0.924,1.699 -0.295,3.823 1.403,4.747 1.699,0.923 3.823,0.295 4.747,-1.403 0.924,-1.699 0.296,-3.823 -1.403,-4.747 z m -2.865,5.271 c -1.213,-0.659 -1.662,-2.177 -1.002,-3.391 0.66,-1.213 2.177,-1.662 3.39,-1.002 1.213,0.659 1.662,2.177 1.002,3.39 -0.659,1.214 -2.177,1.662 -3.39,1.003 z"
         inkscape:connector-curvature="0"
         style="fill:#800000" /></g></g><path
     style="fill:#ffd5d5"
     d="m 12.220757,50.439731 c -0.200062,-0.20006 -0.363749,-0.76409 -0.363749,-1.253391 0,-0.521688 -0.849845,-1.272873 -2.0547443,-1.816206 -1.917803,-0.864809 -2.143747,-0.868248 -3.390097,-0.0516 -1.657765,1.086208 -2.330648,0.284021 -1.204036,-1.435407 0.721571,-1.101257 0.71359,-1.420447 -0.07927,-3.16969 -0.621224,-1.370574 -1.320574,-2.041524 -2.367651,-2.2715 -1.906488,-0.418735 -1.927914,-1.708408 -0.03202,-1.926707 1.087188,-0.12518 1.689736,-0.669756 2.38843,-2.158639 0.855144,-1.822275 0.864013,-2.098688 0.104516,-3.257821 -1.039944,-1.587154 -0.161817,-2.319936 1.476506,-1.232128 1.650486,1.095883 5.0405923,-0.351892 5.2658353,-2.24882 0.216017,-1.819227 1.699012,-1.716619 1.91175,0.132281 0.09206,0.800251 0.449216,1.456466 0.793635,1.45826 0.344422,0.0018 1.262116,0.335027 2.039323,0.740522 1.216218,0.634542 1.566502,0.629817 2.514108,-0.0339 1.57883,-1.105856 2.413848,-0.386538 1.381058,1.1897 -0.771116,1.176872 -0.752589,1.431621 0.24655,3.390094 0.821856,1.610974 1.394204,2.117602 2.392291,2.117602 1.833031,0 1.67369,1.423748 -0.205534,1.836493 -2.081667,0.457213 -3.535191,3.861845 -2.363122,5.535208 1.110455,1.585396 0.376374,2.404267 -1.218512,1.359257 -1.196779,-0.78416 -1.458055,-0.77934 -3.365199,0.06209 -1.260401,0.556087 -2.12904,1.325394 -2.224845,1.97043 -0.165778,1.116175 -1.032496,1.676637 -1.645235,1.063898 z m 3.652741,-4.972587 c 3.677243,-1.780123 4.959868,-5.936278 2.883106,-9.342283 -2.857337,-4.686192 -9.9218423,-4.24245 -12.0096453,0.754358 -1.49987,3.5897 0.06072,7.266302 3.7873223,8.922605 2.153174,0.956987 2.748015,0.919698 5.339217,-0.33468 z"
     id="path3489"
     inkscape:connector-curvature="0" /><path
     style="fill:#ffd5d5"
     d="m 30.383435,33.341389 c -0.513814,-1.240452 -0.998506,-1.607212 -2.124028,-1.607212 -0.802064,0 -1.754695,0.357136 -2.116956,0.793636 -0.602122,0.725511 -2.116363,1.121885 -2.116363,0.553987 0,-0.131807 0.262586,-0.815965 0.583526,-1.520345 0.854998,-1.876518 -0.170833,-3.530912 -2.189412,-3.530912 -1.931717,0 -2.156937,-1.419461 -0.299201,-1.885721 1.788311,-0.448839 2.170381,-2.764524 0.714254,-4.329005 -1.368904,-1.470766 -0.933112,-2.012232 1.060244,-1.317345 2.016488,0.702951 3.305133,-0.250999 3.305133,-2.446704 0,-2.116276 1.041168,-2.149327 2.224025,-0.07058 1.038223,1.824548 2.492149,2.037773 3.828223,0.561426 1.36525,-1.508582 2.468487,-0.881278 1.803743,1.025611 -0.745279,2.137908 0.190186,3.700521 2.215344,3.700521 1.915096,0 2.141129,1.328876 0.304443,1.789854 -1.792241,0.449825 -2.250183,2.651418 -0.861545,4.141945 1.292311,1.387135 0.63907,2.378781 -0.991983,1.505869 -1.62394,-0.869105 -3.126224,0.113513 -3.330148,2.178192 -0.220176,2.229223 -1.184344,2.448421 -2.009299,0.456801 z m 3.563101,-4.53739 c 2.402132,-2.747382 0.647057,-7.634955 -3.031772,-8.442961 -4.833402,-1.061594 -8.244439,4.819206 -5.018798,8.65266 2.119736,2.519165 5.747243,2.424675 8.05057,-0.209699 z"
     id="path3491"
     inkscape:connector-curvature="0" /><path
     style="fill:#ffd5d5"
     d="m 28.222005,26.663469 c -0.50416,-0.607476 -0.542764,-1.080484 -0.140337,-1.719544 0.789053,-1.25306 2.370885,-1.421501 3.163953,-0.336915 1.468567,2.008388 -1.42832,3.978659 -3.023607,2.056459 z"
     id="path3493"
     inkscape:connector-curvature="0" /><path
     style="fill:#ffd5d5"
     d="m 30.965641,50.418866 c -0.04278,-0.805889 -0.600593,-1.351192 -1.841039,-1.799741 -0.978814,-0.353945 -1.774624,-0.90506 -1.768467,-1.224702 0.04249,-2.205605 -0.283707,-3.047703 -1.345958,-3.474676 l -1.190452,-0.478504 1.171837,-0.03354 c 1.127003,-0.03225 2.59883,-1.847194 2.387063,-2.943535 -0.05621,-0.291001 0.773436,-0.548883 1.843655,-0.573074 1.070218,-0.02419 2.030879,-0.299069 2.134806,-0.610844 0.103933,-0.311774 0.806684,0.0057 1.561686,0.705346 0.755004,0.699714 1.635582,1.272681 1.956839,1.273258 0.321257,5.77e-4 0.636228,0.742717 0.699935,1.649195 0.0637,0.906477 0.515571,1.940439 1.004141,2.29769 0.810606,0.592728 0.788595,0.675621 -0.251609,0.947639 -0.744357,0.194654 -1.252852,0.862779 -1.465377,1.925398 -0.179006,0.895015 -0.54037,1.494478 -0.803039,1.332139 -0.86761,-0.536212 -3.557831,0.365796 -3.797421,1.273242 -0.170911,0.647314 -0.252007,0.574778 -0.2966,-0.265295 z m 2.81083,-3.643402 c 1.847573,-1.847572 0.584521,-4.988566 -2.005995,-4.988566 -2.160464,0 -3.167234,3.096171 -1.577844,4.852426 1.074655,1.187481 2.479147,1.240833 3.583839,0.136142 z"
     id="path3495"
     inkscape:connector-curvature="0" /><path
     style="fill:#e3dbdb"
     d="m 11.355986,40.497991 c -0.847582,-1.021274 0.170694,-2.943818 1.559202,-2.943818 1.388503,0 2.406785,1.922544 1.559204,2.943818 -0.808444,0.974113 -2.309965,0.974113 -3.118406,0 z"
     id="path3497"
     inkscape:connector-curvature="0" /><path
     style="fill:#e3dbdb"
     d="m 30.537147,45.149475 c -0.204846,-0.533822 0.0479,-1.149325 0.653899,-1.592446 0.838196,-0.612904 1.102574,-0.607531 1.745588,0.03549 0.416781,0.416783 0.613653,1.133382 0.437493,1.592446 -0.421536,1.098509 -2.411377,1.07362 -2.83698,-0.03549 z"
     id="path3499"
     inkscape:connector-curvature="0" /><path
     style="fill:#e3dbdb"
     d="m 26.912037,28.319139 c -1.587109,-1.58711 -1.656759,-3.394295 -0.202095,-5.243602 2.483824,-3.157669 7.897083,-0.812625 7.14408,3.094841 -0.649029,3.367917 -4.523545,4.567202 -6.941985,2.148761 z m 5.141021,-0.635144 c 2.445921,-2.213529 -0.278065,-6.180626 -3.422897,-4.984962 -2.06313,0.7844 -2.601192,3.215427 -1.082982,4.893032 1.09028,1.204745 3.228038,1.248361 4.505879,0.09193 z"
     id="path3501"
     inkscape:connector-curvature="0" /><path
     style="fill:#e3dbdb"
     d="m 9.8024817,44.098655 c -0.677488,-0.474529 -1.561417,-1.651676 -1.964287,-2.615877 -1.454662,-3.481497 1.367672,-7.636463 5.1829923,-7.630261 3.551629,0.0058 6.491979,4.249739 5.164588,7.454338 -1.387717,3.35025 -5.588652,4.749244 -8.3832933,2.7918 z m 5.2290693,-2.311759 c 1.28664,-1.286642 1.359927,-3.022339 0.182537,-4.323334 -1.782603,-1.969757 -5.4734483,-0.604647 -5.4734483,2.02443 0,1.518447 1.7386623,3.357085 3.1745433,3.357085 0.582,0 1.534362,-0.476182 2.116364,-1.058181 z"
     id="path3503"
     inkscape:connector-curvature="0" /></svg>