<?xml version="1.0" encoding="UTF-8" standalone="no"?>
<svg
   xmlns:dc="http://purl.org/dc/elements/1.1/"
   xmlns:cc="http://creativecommons.org/ns#"
   xmlns:rdf="http://www.w3.org/1999/02/22-rdf-syntax-ns#"
   xmlns:svg="http://www.w3.org/2000/svg"
   xmlns="http://www.w3.org/2000/svg"
   xmlns:sodipodi="http://sodipodi.sourceforge.net/DTD/sodipodi-0.dtd"
   xmlns:inkscape="http://www.inkscape.org/namespaces/inkscape"
   enable-background="new 0 0 64 64"
   height="64px"
   id="Layer_1"
   version="1.1"
   viewBox="0 0 64 64"
   width="64px"
   xml:space="preserve"
   inkscape:version="0.92.2 5c3e80d, 2017-08-06"
   sodipodi:docname="deploy.svg"
   inkscape:export-filename="/Users/csabourdin/Documents/img-icones-svg/deploy.png"
   inkscape:export-xdpi="255.25101"
   inkscape:export-ydpi="255.25101"><metadata
     id="metadata15"><rdf:RDF><cc:Work
         rdf:about=""><dc:format>image/svg+xml</dc:format><dc:type
           rdf:resource="http://purl.org/dc/dcmitype/StillImage" /><dc:title /></cc:Work></rdf:RDF></metadata><defs
     id="defs13" /><sodipodi:namedview
     pagecolor="#ffffff"
     bordercolor="#666666"
     borderopacity="1"
     objecttolerance="10"
     gridtolerance="10"
     guidetolerance="10"
     inkscape:pageopacity="0"
     inkscape:pageshadow="2"
     inkscape:window-width="1489"
     inkscape:window-height="1006"
     id="namedview11"
     showgrid="false"
     inkscape:zoom="5.6642857"
     inkscape:cx="66.381463"
     inkscape:cy="-6"
     inkscape:window-x="189"
     inkscape:window-y="8"
     inkscape:window-maximized="0"
     inkscape:current-layer="layer1" /><g
     id="g921"
     transform="matrix(0.79452971,0,0,0.79452971,35.794,0.24596)" /><g
     inkscape:groupmode="layer"
     id="layer2"
     inkscape:label="rs"
     style="display:inline"
     sodipodi:insensitive="true"><path
       transform="matrix(0.79452971,0,0,0.79452971,35.794,0.24596)"
       style="fill:#0000ff"
       sodipodi:nodetypes="ssccssscccccss"
       inkscape:connector-curvature="0"
       id="path2"
       d="M 24,12 C 24,18.627 18.627,24 12,24 5.373,24 0,18.627 0,12 H 2 C 2,17.514 6.486,22 12,22 17.514,22 22,17.514 22,12 22,6.486 17.514,2 12,2 9.223,2 6.713,3.141 4.901,4.977 L 6.962,7.038 0,8.392 1.305,1.379 3.484,3.559 C 5.656,1.363 8.666,0 12,0 18.627,0 24,5.373 24,12 Z" /><path
       transform="matrix(0.79452971,0,0,0.79452971,35.794,0.24596)"
       style="fill:#0000ff;stroke-width:0.54563373"
       inkscape:connector-curvature="0"
       d="M 13.31094,13.967161 12.811864,13.728508 V 7.8556271 c 3.70822,1.1836525 5.018644,1.2616017 5.018644,2.7559829 v 5.023983 h -3.90339 v -0.713288 c 0,-0.404695 -0.238664,-0.774153 -0.616178,-0.955144 z M 10.581356,5.4915253 H 8.3508479 V 7.7830169 L 10.581356,7.0932203 Z m 5.576271,0 h -2.230509 v 1.601695 l 2.230509,0.6897966 z m -5.576271,9.4307797 c 0,-0.404161 0.238664,-0.774153 0.616178,-0.955144 L 11.69661,13.728508 V 7.8556271 C 8.0592089,9.0168559 6.6779659,9.0873305 6.6779659,10.61161 v 5.023983 h 3.9033901 z m 3.345762,3.382779 h 3.90339 v -1.601695 h -3.90339 z m -7.2491521,0 H 10.581356 V 16.703389 H 6.6779659 Z"
       id="path865" /></g><g
     inkscape:groupmode="layer"
     id="layer3"
     inkscape:label="model"
     style="display:none"
     sodipodi:insensitive="true"><path
       style="fill:#ececec;fill-opacity:1;stroke:#000000;stroke-width:0.13021782;stroke-miterlimit:10;stroke-dasharray:none;stroke-opacity:1"
       d="m 18.188727,42.792185 -2.711819,-4.304846 6.42181,-12.981491 c 3.531996,-7.139821 6.431448,-12.99113 6.443228,-13.002909 0.01178,-0.01178 1.237003,1.954294 2.722719,4.369052 l 2.7013,4.39047 -6.390499,12.917285 c -3.514775,7.104506 -6.409494,12.917284 -6.43271,12.917284 -0.02322,0 -1.262528,-1.93718 -2.754029,-4.304845 z"
       id="path4944"
       inkscape:connector-curvature="0" /><path
       style="fill:#ececec;fill-opacity:1;stroke:#000000;stroke-width:0.13021782;stroke-miterlimit:10;stroke-dasharray:none;stroke-opacity:1"
       d="m 26.54431,48.457499 c -2.634991,-0.304979 -3.856607,-0.475585 -3.841585,-0.536501 0.01211,-0.04913 2.873513,-5.854623 6.358661,-12.901106 l 6.336634,-12.811787 0.752475,0.04885 c 2.162881,0.140401 7.725757,0.542959 7.744894,0.56046 0.01217,0.01113 -2.876503,5.879582 -6.419266,13.041013 l -6.441386,13.020783 -0.313409,0.01274 c -0.172374,0.007 -2.052032,-0.188495 -4.177018,-0.434446 z"
       id="path4946"
       inkscape:connector-curvature="0" /><path
       style="fill:#ececec;fill-opacity:1;stroke:#000000;stroke-width:0.13021782;stroke-miterlimit:10;stroke-dasharray:none;stroke-opacity:1"
       d="m 35.678997,54.746545 c -1.493659,-2.370974 -2.715743,-4.333472 -2.715742,-4.361107 1e-6,-0.08752 12.809063,-25.941814 12.852435,-25.941845 0.04509,-3.1e-5 5.38431,8.656318 5.38431,8.729454 0,0.04457 -12.738733,25.817831 -12.782293,25.861391 -0.01263,0.01263 -1.245052,-1.91692 -2.73871,-4.287893 z"
       id="path4948"
       inkscape:connector-curvature="0" /><path
       style="fill:#ececec;fill-opacity:1;stroke:#000000;stroke-width:0.13021782;stroke-miterlimit:10;stroke-dasharray:none;stroke-opacity:1"
       d="m 44.388119,60.404417 c -2.156436,-0.250718 -4.000815,-0.469229 -4.09862,-0.48558 -0.164773,-0.02755 0.288096,-0.971792 6.168437,-12.861411 C 49.948383,40 52.82745,34.199768 52.855862,34.168021 c 0.06348,-0.07093 8.338095,0.492029 8.429206,0.573475 0.07993,0.07145 -12.785844,26.132971 -12.896949,26.124681 -0.04357,-0.0032 -1.843565,-0.211043 -4,-0.46176 z"
       id="path4950"
       inkscape:connector-curvature="0" /><g
       id="g4915"
       transform="matrix(1.0122271,0.6819762,-0.58440956,1.1812174,22.866041,-29.446874)"><path
         style="fill:#0000ff;fill-opacity:1"
         inkscape:connector-curvature="0"
         d="m 8.0956354,51.916375 c 0.2,0.1 0.4999999,0.2 0.6999999,0.1 l 9.8999997,-4.3 8.3,3.6 c 0.2,0.1 0.4,0.1 0.6,0 l 8.2,-3.8 c 0.3,-0.1 0.4,-0.4 0.4,-0.7 v -23.9 c 0,-0.3 -0.1,-0.5 -0.4,-0.6 -0.1,-0.1 -0.3,-0.1 -0.4,-0.1 -0.1,0 -0.2,0 -0.3,0.1 l -7.9,3.9 -8.2,-3.8 c -0.2,-0.1 -0.4,-0.1 -0.6,0 h -0.1 c 0,0 0,0 0,0 l -10.0999996,4.2 c -0.3,0.1 -0.5,0.4 -0.5,0.7 v 24 c 0.1,0.2 0.2,0.4 0.4,0.6 z m 20.0999996,-24.5 6.6,-3.3 v 22.2 l -6.6,3 z m -8.8,-3.2 7.3,3.3 v 22 l -7.3,-3.2 z m -10.0999997,3.7 8.5999997,-3.6 v 22.1 l -8.5999997,3.7 z"
         id="path4853" /><path
         sodipodi:nodetypes="ccccsscscccccccccccccccc"
         id="path4911"
         d="m 35.697,47.807435 8.600173,3.6 c 0.2,0.1 0.4,0.1 0.6,0 l 8.2,-3.8 c 0.3,-0.1 0.4,-0.4 0.4,-0.7 v -23.9 c 0,-0.3 -0.1,-0.5 -0.4,-0.6 -0.1,-0.1 -0.3,-0.1 -0.4,-0.1 -0.1,0 -0.2,0 -0.3,0.1 l -7.9,3.9 -8.2,-3.8 c -0.2,-0.1 -0.4,-0.1 -0.6,0 h -0.1 c 0,0 -0.213393,17.661483 0.09983,25.3 z m 9.800173,-20.3 6.6,-3.3 v 22.2 l -6.6,3 z m -8.8,-3.2 7.3,3.3 v 22 l -7.3,-3.2 z"
         inkscape:connector-curvature="0"
         style="fill:#0000ff;fill-opacity:1" /></g><path
       style="fill:#ececec;fill-opacity:1;stroke:#000000;stroke-width:0.13021782;stroke-miterlimit:10;stroke-dasharray:none;stroke-opacity:1"
       d="M 8.3485149,36.796865 C 5.5821782,36.411219 3.2585409,36.084853 3.1848764,36.071607 3.0783705,36.052457 4.3752364,33.370783 9.5173122,22.977329 L 15.983683,9.9071339 21.314479,10.700102 c 2.931938,0.436132 5.330857,0.828055 5.330931,0.870941 7.4e-5,0.04289 -2.878083,5.897028 -6.395905,13.009205 l -6.39604,12.931231 -0.237623,-0.0067 c -0.130693,-0.0037 -2.500991,-0.322248 -5.2673271,-0.707895 v -2e-6 z"
       id="path4942"
       inkscape:connector-curvature="0" /></g><g
     inkscape:groupmode="layer"
     id="layer1"
     inkscape:label="plan"
     style="display:inline"><rect
       transform="matrix(0.47469459,-0.88015058,0.73457085,0.67853199,0,0)"
       y="53.881626"
       x="-13.736744"
       height="7.6688724"
       width="25.995726"
       id="rect1488"
       style="opacity:1;fill:#ffffff;fill-opacity:1;stroke:#ff0000;stroke-width:4.5984931;stroke-miterlimit:4;stroke-dasharray:none;stroke-dashoffset:0;stroke-opacity:1;paint-order:stroke fill markers"
       ry="0.47916508" /><rect
       ry="0.95833015"
       style="opacity:1;fill:#ffffff;fill-opacity:1;stroke:#ff0000;stroke-width:4.5984931;stroke-miterlimit:4;stroke-dasharray:none;stroke-dashoffset:0;stroke-opacity:1;paint-order:stroke fill markers"
       id="rect1490"
       width="25.995726"
       height="7.6688724"
       x="-22.903767"
       y="34.621433"
       transform="matrix(0.47469459,-0.88015058,0.73457085,0.67853199,0,0)" /><rect
       style="opacity:1;fill:#ffffff;fill-opacity:1;stroke:#0000ff;stroke-width:4.75396729;stroke-miterlimit:4;stroke-dasharray:none;stroke-dashoffset:0;stroke-opacity:1;paint-order:stroke fill markers"
       id="rect1482"
       width="10.239596"
       height="25.934662"
       x="24.066521"
       y="22.714224"
       transform="matrix(1,0,-0.42261826,0.90630779,0,0)" /><rect
       transform="matrix(1,0,-0.42261826,0.90630779,0,0)"
       y="27.899944"
       x="44.25811"
       height="25.934662"
       width="10.239596"
       id="rect1484"
       style="opacity:1;fill:#ffffff;fill-opacity:1;stroke:#0000ff;stroke-width:4.75396729;stroke-miterlimit:4;stroke-dasharray:none;stroke-dashoffset:0;stroke-opacity:1;paint-order:stroke fill markers" /><rect
       style="opacity:1;fill:#ffffff;fill-opacity:1;stroke:#0000ff;stroke-width:4.75396729;stroke-miterlimit:4;stroke-dasharray:none;stroke-dashoffset:0;stroke-opacity:1;paint-order:stroke fill markers"
       id="rect1486"
       width="10.239596"
       height="25.934662"
       x="67.662231"
       y="35.954762"
       transform="matrix(1,0,-0.42261826,0.90630779,0,0)" /><rect
       transform="matrix(-1,0,0.42261826,0.90630779,0,0)"
       y="35.954762"
       x="-96.551086"
       height="25.934662"
       width="10.239596"
       id="rect1492"
       style="opacity:1;fill:#ffffff;fill-opacity:1;stroke:#0000ff;stroke-width:4.75396729;stroke-miterlimit:4;stroke-dasharray:none;stroke-dashoffset:0;stroke-opacity:1;paint-order:stroke fill markers" /><rect
       style="opacity:1;fill:#ffffff;fill-opacity:1;stroke:#0000ff;stroke-width:4.75396729;stroke-miterlimit:4;stroke-dasharray:none;stroke-dashoffset:0;stroke-opacity:1;paint-order:stroke fill markers"
       id="rect1494"
       width="10.239596"
       height="25.934662"
       x="141.66223"
       y="35.954762"
       transform="matrix(1,0,-0.42261826,0.90630779,0,0)" /><rect
       style="opacity:1;fill:none;fill-opacity:1;stroke:#ff0000;stroke-width:1.70325935;stroke-miterlimit:4;stroke-dasharray:none;stroke-dashoffset:0;stroke-opacity:1;paint-order:stroke fill markers"
       id="rect1498"
       width="10.499971"
       height="27.100504"
       x="119.58046"
       y="-46.229809"
       transform="matrix(0.82252795,0.56872469,-0.40427667,0.91463674,0,0)" /><rect
       transform="matrix(1,0,-0.42261826,0.90630779,0,0)"
       y="28.384262"
       x="118.80402"
       height="25.934662"
       width="10.239596"
       id="rect1500"
       style="opacity:1;fill:#ffffff;fill-opacity:1;stroke:#0000ff;stroke-width:4.75396729;stroke-miterlimit:4;stroke-dasharray:none;stroke-dashoffset:0;stroke-opacity:1;paint-order:stroke fill markers" /><rect
       transform="matrix(0.82252795,0.56872469,-0.40427667,0.91463674,0,0)"
       y="-41.372288"
       x="99.013763"
       height="27.100504"
       width="10.499971"
       id="rect1502"
       style="opacity:1;fill:none;fill-opacity:1;stroke:#ff0000;stroke-width:1.70325935;stroke-miterlimit:4;stroke-dasharray:none;stroke-dashoffset:0;stroke-opacity:1;paint-order:stroke fill markers" /></g><g
     inkscape:groupmode="layer"
     id="layer4"
     inkscape:label="temp"
     sodipodi:insensitive="true"
     style="display:none"><rect
       style="display:inline;opacity:1;fill:#ffffff;fill-opacity:1;stroke:#0000ff;stroke-width:4.20167208;stroke-miterlimit:4;stroke-dasharray:none;stroke-dashoffset:0;stroke-opacity:1;paint-order:stroke fill markers"
       id="rect1450"
       width="14.235469"
       height="31.729567"
       x="19.454781"
       y="9.5353146"
       rx="0"
       ry="3.3740528"
       transform="matrix(1,0,-0.42261826,0.90630779,0,0)" /></g></svg>