<?xml version="1.0" encoding="UTF-8" standalone="no"?>
<svg
   xmlns:dc="http://purl.org/dc/elements/1.1/"
   xmlns:cc="http://creativecommons.org/ns#"
   xmlns:rdf="http://www.w3.org/1999/02/22-rdf-syntax-ns#"
   xmlns:svg="http://www.w3.org/2000/svg"
   xmlns="http://www.w3.org/2000/svg"
   xmlns:sodipodi="http://sodipodi.sourceforge.net/DTD/sodipodi-0.dtd"
   xmlns:inkscape="http://www.inkscape.org/namespaces/inkscape"
   enable-background="new 0 0 64 64"
   height="64px"
   id="Layer_1"
   version="1.1"
   viewBox="0 0 64 64"
   width="64px"
   xml:space="preserve"
   inkscape:version="0.91 r13725"
   sodipodi:docname="deploiement_config.svg"><metadata
     id="metadata15"><rdf:RDF><cc:Work
         rdf:about=""><dc:format>image/svg+xml</dc:format><dc:type
           rdf:resource="http://purl.org/dc/dcmitype/StillImage" /><dc:title></dc:title></cc:Work></rdf:RDF></metadata><defs
     id="defs13" /><sodipodi:namedview
     pagecolor="#ffffff"
     bordercolor="#666666"
     borderopacity="1"
     objecttolerance="10"
     gridtolerance="10"
     guidetolerance="10"
     inkscape:pageopacity="0"
     inkscape:pageshadow="2"
     inkscape:window-width="1489"
     inkscape:window-height="1010"
     id="namedview11"
     showgrid="false"
     inkscape:zoom="12.625"
     inkscape:cx="32"
     inkscape:cy="32"
     inkscape:window-x="0"
     inkscape:window-y="0"
     inkscape:window-maximized="0"
     inkscape:current-layer="Layer_1" /><g
     id="g4915"
     transform="matrix(1.0122271,0.6819762,-0.58440956,1.1812174,22.866041,-29.446874)"><path
       style="fill:#800000"
       inkscape:connector-curvature="0"
       d="m 8.0956354,51.916375 c 0.2,0.1 0.4999999,0.2 0.6999999,0.1 l 9.8999997,-4.3 8.3,3.6 c 0.2,0.1 0.4,0.1 0.6,0 l 8.2,-3.8 c 0.3,-0.1 0.4,-0.4 0.4,-0.7 l 0,-23.9 c 0,-0.3 -0.1,-0.5 -0.4,-0.6 -0.1,-0.1 -0.3,-0.1 -0.4,-0.1 -0.1,0 -0.2,0 -0.3,0.1 l -7.9,3.9 -8.2,-3.8 c -0.2,-0.1 -0.4,-0.1 -0.6,0 l -0.1,0 c 0,0 0,0 0,0 l -10.0999996,4.2 c -0.3,0.1 -0.5,0.4 -0.5,0.7 l 0,24 c 0.1,0.2 0.2,0.4 0.4,0.6 z m 20.0999996,-24.5 6.6,-3.3 0,22.2 -6.6,3 0,-21.9 z m -8.8,-3.2 7.3,3.3 0,22 -7.3,-3.2 0,-22.1 z m -10.0999997,3.7 8.5999997,-3.6 0,22.1 -8.5999997,3.7 0,-22.2 z"
       id="path4853" /><path
       sodipodi:nodetypes="ccccsscscccccccccccccccc"
       id="path4911"
       d="m 35.697,47.807435 8.600173,3.6 c 0.2,0.1 0.4,0.1 0.6,0 l 8.2,-3.8 c 0.3,-0.1 0.4,-0.4 0.4,-0.7 l 0,-23.9 c 0,-0.3 -0.1,-0.5 -0.4,-0.6 -0.1,-0.1 -0.3,-0.1 -0.4,-0.1 -0.1,0 -0.2,0 -0.3,0.1 l -7.9,3.9 -8.2,-3.8 c -0.2,-0.1 -0.4,-0.1 -0.6,0 l -0.1,0 c 0,0 -0.213393,17.661483 0.09983,25.3 z m 9.800173,-20.3 6.6,-3.3 0,22.2 -6.6,3 z m -8.8,-3.2 7.3,3.3 0,22 -7.3,-3.2 z"
       inkscape:connector-curvature="0"
       style="fill:#800000" /></g><path
     style="fill:#ececec;fill-opacity:1;stroke:#000000;stroke-width:0.13021782;stroke-miterlimit:10;stroke-dasharray:none;stroke-opacity:1"
     d="M 8.3485149,36.796865 C 5.5821782,36.411219 3.2585409,36.084853 3.1848764,36.071607 3.0783705,36.052457 4.3752364,33.370783 9.5173122,22.977329 L 15.983683,9.9071339 21.314479,10.700102 c 2.931938,0.436132 5.330857,0.828055 5.330931,0.870941 7.4e-5,0.04289 -2.878083,5.897028 -6.395905,13.009205 l -6.39604,12.931231 -0.237623,-0.0067 c -0.130693,-0.0037 -2.500991,-0.322248 -5.2673271,-0.707895 l 0,-2e-6 z"
     id="path4942"
     inkscape:connector-curvature="0" /><path
     style="fill:#ececec;fill-opacity:1;stroke:#000000;stroke-width:0.13021782;stroke-miterlimit:10;stroke-dasharray:none;stroke-opacity:1"
     d="m 18.188727,42.792185 -2.711819,-4.304846 6.42181,-12.981491 c 3.531996,-7.139821 6.431448,-12.99113 6.443228,-13.002909 0.01178,-0.01178 1.237003,1.954294 2.722719,4.369052 l 2.7013,4.39047 -6.390499,12.917285 c -3.514775,7.104506 -6.409494,12.917284 -6.43271,12.917284 -0.02322,0 -1.262528,-1.93718 -2.754029,-4.304845 z"
     id="path4944"
     inkscape:connector-curvature="0" /><path
     style="fill:#ececec;fill-opacity:1;stroke:#000000;stroke-width:0.13021782;stroke-miterlimit:10;stroke-dasharray:none;stroke-opacity:1"
     d="m 26.54431,48.457499 c -2.634991,-0.304979 -3.856607,-0.475585 -3.841585,-0.536501 0.01211,-0.04913 2.873513,-5.854623 6.358661,-12.901106 l 6.336634,-12.811787 0.752475,0.04885 c 2.162881,0.140401 7.725757,0.542959 7.744894,0.56046 0.01217,0.01113 -2.876503,5.879582 -6.419266,13.041013 l -6.441386,13.020783 -0.313409,0.01274 c -0.172374,0.007 -2.052032,-0.188495 -4.177018,-0.434446 z"
     id="path4946"
     inkscape:connector-curvature="0" /><path
     style="fill:#ececec;fill-opacity:1;stroke:#000000;stroke-width:0.13021782;stroke-miterlimit:10;stroke-dasharray:none;stroke-opacity:1"
     d="m 35.678997,54.746545 c -1.493659,-2.370974 -2.715743,-4.333472 -2.715742,-4.361107 1e-6,-0.08752 12.809063,-25.941814 12.852435,-25.941845 0.04509,-3.1e-5 5.38431,8.656318 5.38431,8.729454 0,0.04457 -12.738733,25.817831 -12.782293,25.861391 -0.01263,0.01263 -1.245052,-1.91692 -2.73871,-4.287893 z"
     id="path4948"
     inkscape:connector-curvature="0" /><path
     style="fill:#ececec;fill-opacity:1;stroke:#000000;stroke-width:0.13021782;stroke-miterlimit:10;stroke-dasharray:none;stroke-opacity:1"
     d="m 44.388119,60.404417 c -2.156436,-0.250718 -4.000815,-0.469229 -4.09862,-0.48558 -0.164773,-0.02755 0.288096,-0.971792 6.168437,-12.861411 C 49.948383,40 52.82745,34.199768 52.855862,34.168021 c 0.06348,-0.07093 8.338095,0.492029 8.429206,0.573475 0.07993,0.07145 -12.785844,26.132971 -12.896949,26.124681 -0.04357,-0.0032 -1.843565,-0.211043 -4,-0.46176 z"
     id="path4950"
     inkscape:connector-curvature="0" /><g
     id="g3"
     style="fill:#800000"
     transform="matrix(0.43813555,0,0,0.45402228,30.985261,-6.0323093)"><path
       d="m 32,13.971 c -5.797,0 -11.049,2.369 -14.846,6.188 l 4.554,3.288 c 2.745,-2.479 6.368,-4.003 10.35,-4.003 8.533,0 15.475,6.942 15.475,15.475 0,8.533 -6.941,15.475 -15.475,15.475 -8.534,0 -15.475,-6.941 -15.475,-15.475 0,-3.775 1.362,-7.235 3.617,-9.924 l -3.42,-4.423 c -3.539,3.753 -5.726,8.794 -5.726,14.347 0,11.551 9.396,20.948 20.946,20.948 11.55,0 20.946,-9.397 20.946,-20.948 C 52.946,23.368 43.55,13.971 32,13.971 Z"
       id="path7"
       style="fill:#800000"
       inkscape:connector-curvature="0" /><path
       d="m 32.158,38.364 c -1.06,0 -1.994,-0.508 -2.602,-1.283 L 29.55,37.089 21.981,27.3 c -1.609,2.122 -2.575,4.756 -2.575,7.618 0,6.976 5.675,12.65 12.651,12.65 6.976,0 12.65,-5.675 12.65,-12.65 0,-6.975 -5.675,-12.651 -12.65,-12.651 -3.037,0 -5.827,1.077 -8.01,2.868 l 9.818,7.088 -0.006,0.008 c 0.961,0.578 1.609,1.621 1.609,2.824 10e-4,1.827 -1.48,3.309 -3.31,3.309 z"
       id="path9"
       style="fill:#800000"
       inkscape:connector-curvature="0" /></g></svg>