<?xml version="1.0" encoding="UTF-8" standalone="no"?>
<svg
   xmlns:dc="http://purl.org/dc/elements/1.1/"
   xmlns:cc="http://creativecommons.org/ns#"
   xmlns:rdf="http://www.w3.org/1999/02/22-rdf-syntax-ns#"
   xmlns:svg="http://www.w3.org/2000/svg"
   xmlns="http://www.w3.org/2000/svg"
   xmlns:sodipodi="http://sodipodi.sourceforge.net/DTD/sodipodi-0.dtd"
   xmlns:inkscape="http://www.inkscape.org/namespaces/inkscape"
   enable-background="new 0 0 24 24"
   height="24px"
   id="Layer_1"
   version="1.1"
   viewBox="0 0 24 24"
   width="24px"
   xml:space="preserve"
   inkscape:version="0.92.2 5c3e80d, 2017-08-06"
   sodipodi:docname="icones-files-folders-pvc.svg"><metadata
     id="metadata3745"><rdf:RDF><cc:Work
         rdf:about=""><dc:format>image/svg+xml</dc:format><dc:type
           rdf:resource="http://purl.org/dc/dcmitype/StillImage" /><dc:title /></cc:Work></rdf:RDF></metadata><defs
     id="defs3743" /><sodipodi:namedview
     pagecolor="#ffffff"
     bordercolor="#666666"
     borderopacity="1"
     objecttolerance="10"
     gridtolerance="10"
     guidetolerance="10"
     inkscape:pageopacity="0"
     inkscape:pageshadow="2"
     inkscape:window-width="1129"
     inkscape:window-height="981"
     id="namedview3741"
     showgrid="false"
     inkscape:zoom="15.133795"
     inkscape:cx="-0.95114675"
     inkscape:cy="12"
     inkscape:window-x="44"
     inkscape:window-y="63"
     inkscape:window-maximized="0"
     inkscape:current-layer="Layer_1" /><rect
     style="opacity:1;fill:#ffffff;fill-opacity:1;stroke:none;stroke-width:0.2;stroke-miterlimit:4;stroke-dasharray:0.80000001, 0.80000000999999998;stroke-dashoffset:0;stroke-opacity:1;paint-order:stroke fill markers"
     id="rect6394"
     width="11.402733"
     height="13.593869"
     x="2.9723759"
     y="6.4362931" /><g
     id="g3735"
     style="fill:#0000ff"><path
       d="M 23,4 23,2.1 C 23,1.5 22.5,1 21.9,1 L 9.8,1 9,0 1.1,0 C 0.5,0 0,0.5 0,1.1 L 0,22.9 C 0,23.5 0.5,24 1.1,24 l 21.8,0 C 23.5,24 24,23.5 24,22.9 L 24,5.1 C 24,4.5 23.6,4.1 23,4 Z m 0,19.2 -22.1,0 0,-22.2 7.5,0 3,3.9 11.6,0 z M 22,4 12,4 10.5,2 22,2 Z"
       id="path3737"
       inkscape:connector-curvature="0"
       sodipodi:nodetypes="cssccsssssssccccccccccccc"
       style="fill:#0000ff" /></g><g
     id="g3748"
     transform="matrix(0.61778829,0,0,0.61730243,1.1816641,6.4495084)"
     style="fill:#0000ff"><path
       inkscape:connector-curvature="0"
       id="path3750"
       d="m 22.133898,9 -1.642372,0 0,-1.9 c 0,-0.6 -0.432204,-1.1 -0.950848,-1.1 l -1.642373,0 0,-1.9 c 0,-0.6 -0.432203,-1.1 -0.950848,-1.1 l -1.642372,0 0,-1.9 c 0,-0.6 -0.432204,-1.1 -0.950848,-1.1 L 3.2898305,0 C 2.7711864,0 2.3389831,0.5 2.3389831,1.1 l 0,12.8 c 0,0.6 0.4322033,1.1 0.9508474,1.1 l 1.6423729,0 0,1.9 c 0,0.6 0.4322034,1.1 0.9508475,1.1 l 1.6423728,0 0,1.9 c 0,0.6 0.4322034,1.1 0.9508475,1.1 l 1.6423728,0 0,1.9 c 0,0.6 0.432204,1.1 0.950848,1.1 l 11.064406,0 c 0.518645,0 0.950848,-0.5 0.950848,-1.1 l 0,-12.8 c 0,-0.6 -0.432203,-1.1 -0.950848,-1.1 z M 4.9322034,4.1 l 0,8.9 -0.8644068,0 0,-11 9.5084744,0 0,1 -7.6932201,0 C 5.3644068,3 4.9322034,3.5 4.9322034,4.1 Z m 2.5932203,3 0,8.9 -0.8644068,0 0,-11 9.5084751,0 0,1 -7.6932208,0 C 7.9576271,6 7.5254237,6.5 7.5254237,7.1 Z m 2.5932203,3 0,8.9 -0.8644067,0 0,-11 9.5084747,0 0,1 -7.69322,0 c -0.518644,0 -0.950848,0.5 -0.950848,1.1 z m 11.237288,11.9 -9.508475,0 0,-11 9.508475,0 0,11 z"
       style="fill:#0000ff" /><rect
       id="rect3752"
       y="13"
       x="13"
       width="7"
       height="1"
       style="fill:#0000ff" /><rect
       id="rect3754"
       y="15"
       x="13"
       width="7"
       height="1"
       style="fill:#0000ff" /><rect
       id="rect3756"
       y="17"
       x="13"
       width="7"
       height="1"
       style="fill:#0000ff" /><rect
       id="rect3758"
       y="19"
       x="13"
       width="7"
       height="1"
       style="fill:#0000ff" /></g><path
     style="fill:#e6e6e6;stroke:none;stroke-width:1px;stroke-linecap:butt;stroke-linejoin:miter;stroke-opacity:1"
     d="M 11.448294,3.2150258 C 11.128695,2.7880014 10.794446,2.3419797 10.705518,2.2238666 l -0.161688,-0.2147512 5.723527,0 5.723528,0 0,0.9911592 0,0.9911592 -4.980752,0 -4.980751,0 -0.581088,-0.776408 z"
     id="path3895"
     inkscape:connector-curvature="0" /><path
     style="fill:#f2f2f2"
     d="m 0.91223261,12.0859 0,-11.0679437 3.73045239,0 3.7304521,0 1.4998049,1.9492797 1.499804,1.9492797 5.804649,0 5.804649,0 0,9.1186643 0,9.118665 -11.034906,0 -11.03490539,0 0,-11.067945 z M 15.073634,21.22987 c 0.07938,-0.0406 0.195704,-0.137234 0.258495,-0.214751 0.105491,-0.130231 0.114278,-0.46393 0.115635,-4.391488 l 0.0015,-4.250549 -0.193149,-0.193148 c -0.185108,-0.185109 -0.218117,-0.193149 -0.792928,-0.193149 l -0.599778,0 0,-0.664055 c 0,-0.703228 -0.08313,-0.987705 -0.326726,-1.118073 -0.06992,-0.03742 -0.381827,-0.06804 -0.693128,-0.06804 l -0.566,0 0,-0.6298568 c 0,-0.6823133 -0.09675,-1.0291913 -0.320449,-1.1489114 -0.07337,-0.039268 -0.384815,-0.071396 -0.692095,-0.071396 l -0.558692,0 -0.02476,-0.7234867 C 10.657762,6.8686726 10.648971,6.8313509 10.463622,6.6378886 l -0.193141,-0.2015955 -3.6490524,0 -3.6490527,0 -0.171067,0.2033016 -0.171067,0.2033017 0,4.2282206 c 0,2.773607 0.023406,4.271955 0.068036,4.355346 0.1220107,0.227979 0.4199874,0.326726 0.985919,0.326726 l 0.5318997,0 0,0.657664 c 0,1.03104 0.1419095,1.1925 1.0481088,1.1925 l 0.5260533,0 0.022366,0.73241 0.022366,0.73241 0.2157936,0.192672 c 0.2024392,0.180748 0.2504874,0.192672 0.7764081,0.192672 l 0.5606143,0 0,0.631016 c 0,0.676276 0.078159,0.92932 0.3447113,1.116021 0.1289538,0.09032 0.5848883,0.103127 3.6720108,0.103127 2.465871,0 3.568135,-0.02217 3.669106,-0.07381 z"
     id="path3897"
     inkscape:connector-curvature="0" /></svg>