<?xml version="1.0" encoding="UTF-8" standalone="no"?>
<svg
   xmlns:dc="http://purl.org/dc/elements/1.1/"
   xmlns:cc="http://creativecommons.org/ns#"
   xmlns:rdf="http://www.w3.org/1999/02/22-rdf-syntax-ns#"
   xmlns:svg="http://www.w3.org/2000/svg"
   xmlns="http://www.w3.org/2000/svg"
   xmlns:sodipodi="http://sodipodi.sourceforge.net/DTD/sodipodi-0.dtd"
   xmlns:inkscape="http://www.inkscape.org/namespaces/inkscape"
   enable-background="new 0 0 64 64"
   height="64px"
   id="Layer_1"
   version="1.1"
   viewBox="0 0 64 64"
   width="64px"
   xml:space="preserve"
   inkscape:version="0.91 r13725"
   sodipodi:docname="ImageStream.svg"><metadata
     id="metadata25"><rdf:RDF><cc:Work
         rdf:about=""><dc:format>image/svg+xml</dc:format><dc:type
           rdf:resource="http://purl.org/dc/dcmitype/StillImage" /><dc:title></dc:title></cc:Work></rdf:RDF></metadata><defs
     id="defs23" /><sodipodi:namedview
     pagecolor="#ffffff"
     bordercolor="#666666"
     borderopacity="1"
     objecttolerance="10"
     gridtolerance="10"
     guidetolerance="10"
     inkscape:pageopacity="0"
     inkscape:pageshadow="2"
     inkscape:window-width="1134"
     inkscape:window-height="908"
     id="namedview21"
     showgrid="false"
     inkscape:zoom="1.9500679"
     inkscape:cx="-52.963604"
     inkscape:cy="-74.301986"
     inkscape:window-x="24"
     inkscape:window-y="43"
     inkscape:window-maximized="0"
     inkscape:current-layer="Layer_1" /><g
     id="g3"
     transform="matrix(0.7307092,0,0,0.7307092,-0.4582284,-0.6260817)"><path
       d="M 61.865,31.156 56.016,28.444 C 55.168,28.048 54.191,28.047 53.34,28.436 l -20.01,9.148 c -0.844,0.385 -1.815,0.385 -2.658,0 L 10.658,28.437 C 9.808,28.047 8.83,28.049 7.982,28.445 l -5.849,2.712 c -0.849,0.395 -0.845,1.596 0.007,1.986 l 28.531,13.041 c 0.843,0.388 1.814,0.388 2.658,0 L 61.858,33.143 c 0.853,-0.391 0.857,-1.592 0.007,-1.987 z"
       id="path5"
       style="fill:#c83737"
       inkscape:connector-curvature="0" /><path
       d="M 61.865,47.877 56.016,45.161 C 55.168,44.769 54.191,44.765 53.34,45.153 l -20.01,9.15 c -0.844,0.386 -1.815,0.386 -2.658,0 L 10.658,45.154 C 9.808,44.766 8.83,44.77 7.982,45.162 L 2.133,47.878 C 1.284,48.27 1.288,49.471 2.14,49.861 l 28.531,13.044 c 0.843,0.386 1.814,0.386 2.658,0 L 61.859,49.86 c 0.852,-0.39 0.856,-1.591 0.006,-1.983 z"
       id="path7"
       style="fill:#d35f5f"
       inkscape:connector-curvature="0" /><path
       d="M 61.865,31.156 59.96,30.273 33.33,42.447 c -0.844,0.386 -1.815,0.386 -2.658,0 L 4.04,30.273 2.134,31.156 c -0.849,0.395 -0.845,1.596 0.007,1.986 l 28.531,13.041 c 0.843,0.388 1.814,0.388 2.658,0 L 61.859,33.142 c 0.852,-0.39 0.856,-1.591 0.006,-1.986 z"
       id="path9"
       style="fill:#800000"
       inkscape:connector-curvature="0" /><path
       d="M 61.865,47.877 59.96,46.991 33.33,59.166 c -0.844,0.388 -1.815,0.388 -2.658,0 L 4.039,46.991 2.134,47.877 C 1.285,48.269 1.289,49.47 2.141,49.86 l 28.531,13.044 c 0.843,0.386 1.814,0.386 2.658,0 L 61.859,49.86 c 0.852,-0.39 0.856,-1.591 0.006,-1.983 z"
       id="path11"
       style="fill:#800000"
       inkscape:connector-curvature="0" /><path
       d="M 61.865,14.29 33.555,1.148 c -0.986,-0.456 -2.122,-0.456 -3.108,0 L 2.136,14.29 c -0.851,0.394 -0.847,1.595 0.005,1.986 L 30.67,29.317 c 0.844,0.387 1.815,0.387 2.659,0 l 28.53,-13.041 c 0.852,-0.391 0.855,-1.592 0.006,-1.986 z"
       id="path13"
       inkscape:connector-curvature="0"
       style="fill:#303030" /><path
       d="M 61.865,14.29 33.555,1.148 c -0.986,-0.456 -2.122,-0.456 -3.108,0 L 2.136,14.29 c -0.851,0.394 -0.847,1.595 0.005,1.986 L 30.67,29.317 c 0.844,0.387 1.815,0.387 2.659,0 l 28.53,-13.041 c 0.852,-0.391 0.855,-1.592 0.006,-1.986 z"
       id="path15"
       style="fill:#ff0000"
       inkscape:connector-curvature="0" /><path
       d="M 61.865,14.29 33.568,1.148 C 33.066,0.917 33,0.805 32,0.809 l 0,28.796 c 0,0.004 0.912,-0.091 1.342,-0.287 L 61.866,16.277 c 0.852,-0.392 0.848,-1.593 -10e-4,-1.987 z"
       id="path17"
       style="fill:#ff5555"
       inkscape:connector-curvature="0" /><path
       d="M 61.865,14.29 59.962,13.406 33.329,25.582 c -0.844,0.387 -1.815,0.387 -2.659,0 L 4.038,13.406 2.136,14.29 c -0.851,0.394 -0.847,1.595 0.005,1.986 L 30.67,29.317 c 0.844,0.387 1.815,0.387 2.659,0 l 28.53,-13.041 c 0.852,-0.391 0.855,-1.592 0.006,-1.986 z"
       id="path19"
       style="fill:#800000"
       inkscape:connector-curvature="0" /></g><g
     id="search_1_"
     transform="matrix(-1.4491526,0,0,1.3898184,62.37288,11.111195)"
     style="fill:#800000"><path
       id="path3792"
       d="m 20,0.005 c -6.627,0 -12,5.373 -12,12 0,2.026 0.507,3.933 1.395,5.608 l -8.344,8.342 0.007,0.006 C 0.406,26.602 0,27.49 0,28.477 c 0,1.949 1.58,3.529 3.529,3.529 0.985,0 1.874,-0.406 2.515,-1.059 l -0.002,-0.002 8.341,-8.34 c 1.676,0.891 3.586,1.4 5.617,1.4 6.627,0 12,-5.373 12,-12 0,-6.627 -5.373,-12 -12,-12 z M 4.795,29.697 c -0.322,0.334 -0.768,0.543 -1.266,0.543 -0.975,0 -1.765,-0.789 -1.765,-1.764 0,-0.498 0.21,-0.943 0.543,-1.266 l -0.009,-0.008 8.066,-8.066 c 0.705,0.951 1.545,1.791 2.494,2.498 L 4.795,29.697 Z M 20,22.006 c -5.522,0 -10,-4.479 -10,-10 0,-5.522 4.478,-10 10,-10 5.521,0 10,4.478 10,10 0,5.521 -4.479,10 -10,10 z"
       inkscape:connector-curvature="0"
       style="fill:#800000" /><path
       id="path3794"
       d="m 20,5.005 c -3.867,0 -7,3.134 -7,7 0,0.276 0.224,0.5 0.5,0.5 0.276,0 0.5,-0.224 0.5,-0.5 0,-3.313 2.686,-6 6,-6 0.275,0 0.5,-0.224 0.5,-0.5 0,-0.276 -0.225,-0.5 -0.5,-0.5 z"
       inkscape:connector-curvature="0"
       style="fill:#800000" /></g><path
     style="fill:#ffd5d5;opacity:0.5"
     d="M 29.700183,41.00531 C 23.350092,39.066699 19.335715,34.018964 19.290634,27.916191 c -0.02938,-3.97774 1.330863,-7.056779 4.334789,-9.81218 3.179604,-2.916544 6.174455,-3.969564 10.534867,-3.704165 4.225937,0.257214 6.8681,1.448878 9.731306,4.388997 3.851748,3.955219 4.777664,9.987139 2.283516,14.876074 -2.873045,5.631633 -10.679337,9.109721 -16.474929,7.340393 z M 43.545855,26.844504 c 0,-2.181682 -0.933255,-4.101912 -2.902834,-5.972762 -2.345916,-2.228323 -6.935173,-3.735734 -8.032507,-2.638399 -0.588888,0.588887 0.756403,1.713791 2.04955,1.713791 3.024869,0 6.452664,3.278122 7.104866,6.794635 0.4696,2.531967 1.780925,2.607612 1.780925,0.102735 z"
     id="path3815"
     inkscape:connector-curvature="0" /></svg>