<?xml version="1.0" encoding="UTF-8" standalone="no"?>
<svg
   xmlns:dc="http://purl.org/dc/elements/1.1/"
   xmlns:cc="http://creativecommons.org/ns#"
   xmlns:rdf="http://www.w3.org/1999/02/22-rdf-syntax-ns#"
   xmlns:svg="http://www.w3.org/2000/svg"
   xmlns="http://www.w3.org/2000/svg"
   xmlns:sodipodi="http://sodipodi.sourceforge.net/DTD/sodipodi-0.dtd"
   xmlns:inkscape="http://www.inkscape.org/namespaces/inkscape"
   width="24"
   height="24"
   viewBox="0 0 24 24"
   version="1.1"
   id="svg4"
   sodipodi:docname="kube-configmap-wrk.svg"
   inkscape:version="0.92.2 5c3e80d, 2017-08-06"
   inkscape:export-filename="kube-secrets.png"
   inkscape:export-xdpi="255.25101"
   inkscape:export-ydpi="255.25101">
  <metadata
     id="metadata10">
    <rdf:RDF>
      <cc:Work
         rdf:about="">
        <dc:format>image/svg+xml</dc:format>
        <dc:type
           rdf:resource="http://purl.org/dc/dcmitype/StillImage" />
        <dc:title></dc:title>
      </cc:Work>
    </rdf:RDF>
  </metadata>
  <defs
     id="defs8" />
  <sodipodi:namedview
     pagecolor="#ffffff"
     bordercolor="#666666"
     borderopacity="1"
     objecttolerance="10"
     gridtolerance="10"
     guidetolerance="10"
     inkscape:pageopacity="0"
     inkscape:pageshadow="2"
     inkscape:window-width="1565"
     inkscape:window-height="985"
     id="namedview6"
     showgrid="false"
     inkscape:zoom="21.048841"
     inkscape:cx="14.46902"
     inkscape:cy="18.372113"
     inkscape:window-x="0"
     inkscape:window-y="0"
     inkscape:window-maximized="0"
     inkscape:current-layer="layer4" />
  <g
     inkscape:groupmode="layer"
     id="layer5"
     inkscape:label="note"
     style="display:inline">
    <path
       id="path3859"
       d="M 11.724544,5.6918955 6.0845442,11.331895 c -0.655,0.655 -1.515,0.982 -2.3739996,0.982 -1.855,0 -3.35600001,-1.498 -3.35600001,-3.3559995 0,-0.86 0.327,-1.721 0.98100001,-2.375 L 6.8755442,1.0438953 c 0.487,-0.48700005 1.125,-0.73100005 1.765,-0.73100005 2.2059998,0 3.3379998,2.68600005 1.7649998,4.25900025 l -4.9189998,4.919 c -0.634,0.6339995 -1.6649996,0.6339995 -2.2979996,0 -0.634,-0.633 -0.634,-1.664 0,-2.298 l 3.9699996,-3.9700002 0.828,0.828 -3.9699996,3.9700002 c -0.178,0.177 -0.178,0.465 0,0.642 0.177,0.178 0.465,0.178 0.6419996,0 l 4.919,-4.9180002 c 1.2389998,-1.243 -0.636,-3.11200005 -1.873,-1.874 L 2.1645446,7.4108955 c -0.853,0.853 -0.853,2.24 0,3.0939995 0.854,0.852 2.24,0.852 3.0929996,0 L 10.897544,4.8648955 Z m 0.637,-5.37900025 c 0.409,0.609 0.635,1.17000005 0.729,2.00000005 h 7.264 V 13.855895 c 0,4.107 -6,2.457 -6,2.457 0,0 1.518,6 -2.638,6 H 4.3545446 v -8.062 c -0.63,0.075 -1,0.13 -2,-0.133 v 10.195 H 12.543544 c 3.163,0 9.811,-7.223 9.811,-9.614 V 0.31289525 Z m 4.993,6.00000025 h -3.423 l -0.793,0.793 -0.207,0.207 h 4.423 z m 0,3 h -6.423 L 9.9315442,10.312895 h 7.4229998 z m 0,2.9999995 H 7.9315442 l -0.433,0.433 c -0.212,0.213 -0.449,0.395 -0.689,0.567 H 17.354544 Z"
       inkscape:connector-curvature="0"
       style="fill:#2f5dbc;fill-opacity:1" />
  </g>
  <g
     inkscape:groupmode="layer"
     id="layer2"
     inkscape:label="eyes"
     style="display:none">
    <path
       id="path867"
       d="m 17.287803,10.398646 c -0.779727,0 -1.41127,0.631896 -1.41127,1.41127 0,0.779374 0.631543,1.41127 1.41127,1.41127 0.779374,0 1.41127,-0.631896 1.41127,-1.41127 0,-0.779374 -0.631896,-1.41127 -1.41127,-1.41127 z m -0.0014,1.410917 c -0.19899,0.198989 -0.521818,0.198989 -0.72116,0 -0.199342,-0.198989 -0.199342,-0.52217 0,-0.721159 0.19899,-0.198989 0.521818,-0.198989 0.72116,0 0.199341,0.198989 0.199341,0.521817 0,0.721159 z"
       inkscape:connector-curvature="0"
       style="fill:#000080;stroke-width:0.35281754"
       sodipodi:nodetypes="ssssscsscc" />
    <path
       style="fill:#000080;stroke-width:0.35281754"
       inkscape:connector-curvature="0"
       d="m 6.736803,10.398646 c -0.779727,0 -1.41127,0.631896 -1.41127,1.41127 0,0.779374 0.631543,1.41127 1.41127,1.41127 0.779374,0 1.41127,-0.631896 1.41127,-1.41127 0,-0.779374 -0.631896,-1.41127 -1.41127,-1.41127 z m -0.0014,1.410917 c -0.19899,0.198989 -0.521818,0.198989 -0.72116,0 -0.199342,-0.198989 -0.199342,-0.52217 0,-0.721159 0.19899,-0.198989 0.521818,-0.198989 0.72116,0 0.199341,0.198989 0.199341,0.521817 0,0.721159 z"
       id="path880"
       sodipodi:nodetypes="ssssscsscc" />
  </g>
  <g
     inkscape:groupmode="layer"
     id="layer3"
     inkscape:label="wrk"
     style="display:none">
    <path
       inkscape:connector-curvature="0"
       id="path882"
       d="m 17.472,7.006 c 2.663,0 5.321,2.043 5.321,4.994 0,2.951 -2.658,4.994 -5.321,4.994 -2.419,0 -3.795,-1.845 -5.405,-3.497 -1.635,1.695 -3.164,3.497 -5.54,3.497 -2.663,0 -5.321,-2.043 -5.321,-4.994 0,-2.951 2.658,-4.994 5.321,-4.994 2.387,0 5.003456,0.72109 5.415,3.29 0.476453,-2.5090008 3.178,-3.29 5.53,-3.29 z m 0,8.323 c 1.76,0 3.798,-1.313 3.798,-3.329 0,-2.017 -2.038,-4.13 -3.798,-4.13 -1.865,0 -2.987,2.337 -4.457,4.102 1.474,1.765 2.588,3.357 4.457,3.357 z m -10.944,0 c 1.924,0 3.097,-1.573 4.467,-3.196 C 9.415,10.22 8.345,7.87 6.528,7.87 4.768,7.87 2.83,9.983 2.83,12 c 0,2.016 1.938,3.329 3.698,3.329 z M 17.472,5 C 13.241015,4.944495 10.997425,5.0915823 6.528,5 2.746,5 0,7.944 0,12 c 0,4.056 2.746,7 6.528,7 2.392,0 4.124,-1.268 5.525,-2.617 C 13.376,17.704 15.036,19 17.472,19 21.254,19 24,16.056 24,12 24,7.944 21.254,5 17.472,5 Z m -1.842,6.977 c 0.736,-0.84 1.273,-1.301 1.842,-1.301 0.244,0 0.891,0 0.891,1.324 0,1.324 -0.647,1.324 -0.891,1.324 -0.559,0 -1.093,-0.479 -1.842,-1.347 z m -9.102,1.347 c -0.244,0 -0.891,0 -0.891,-1.324 0,-1.324 0.647,-1.324 0.891,-1.324 0.528,0 1.068,0.509 1.849,1.433 -0.697,0.769 -1.249,1.215 -1.849,1.215 z"
       sodipodi:nodetypes="ssscssscsssscsscsssccsscssccssscssscs"
       style="fill:#2f5dbc;fill-opacity:1" />
  </g>
  <g
     inkscape:groupmode="layer"
     id="layer4"
     inkscape:label="wrk2">
    <g
       style="display:inline"
       id="g1969"
       transform="matrix(0.03456881,0,0,0.03456881,13.076595,14.35344)">
      <g
         style="display:inline;opacity:1"
         inkscape:label="kube-layer"
         id="layer2-7">
        <g
           transform="matrix(0.98336641,0,0,0.98336641,0.2361844,1.05783)"
           id="g4777">
          <path
             inkscape:connector-curvature="0"
             style="fill:#326de6"
             d="m 82.085161,244.93419 c -5.945806,0 -11.56129,-2.64258 -15.36,-7.43226 L 8.9187097,165.65677 C 5.12,160.8671 3.6335484,154.75613 5.12,148.81032 L 25.765161,59.127742 C 27.086452,53.181936 31.050323,48.392258 36.500645,45.749677 L 120.07226,5.7806452 c 2.64258,-1.3212904 5.61548,-1.9819355 8.58838,-1.9819355 2.97291,0 5.94581,0.6606451 8.58839,1.9819355 l 83.57162,39.8038708 c 5.45032,2.642581 9.41419,7.432258 10.73548,13.378065 l 20.64516,89.682579 c 1.32129,5.94581 0,12.05677 -3.79871,16.84645 l -57.80645,71.84516 c -3.79871,4.62452 -9.4142,7.43226 -15.36,7.43226 z"
             id="path4779" />
          <path
             inkscape:connector-curvature="0"
             style="fill:#ffffff"
             d="m 128.49548,7.9277419 c 2.31226,0 4.62452,0.4954839 6.77162,1.4864517 l 83.57161,39.8038704 c 4.29419,2.147097 7.59742,6.110968 8.58839,10.735484 l 20.64516,89.682582 c 1.15613,4.78968 0,9.74451 -3.13807,13.54322 l -57.80645,71.84517 c -2.9729,3.79871 -7.59742,5.9458 -12.3871,5.9458 H 82.085161 c -4.789677,0 -9.414193,-2.14709 -12.387097,-5.9458 L 11.891613,163.17935 C 8.9187097,159.38064 7.7625807,154.42581 8.7535484,149.63613 L 29.39871,59.953548 C 30.554839,55.163871 33.692903,51.2 37.987097,49.218064 L 121.55871,9.2490323 c 2.1471,-0.8258065 4.62452,-1.3212904 6.93677,-1.3212904 z m 0,-7.76258061 v 0 c -3.46838,0 -6.93677,0.82580645 -10.24,2.31225811 L 34.683871,42.446452 C 28.077419,45.584516 23.452903,51.365161 21.80129,58.467097 L 1.156129,148.14968 c -1.65161287,7.10193 0,14.36903 4.6245162,20.14967 l 57.8064518,71.84517 c 4.459355,5.61548 11.230968,8.75354 18.332903,8.75354 h 92.65548 c 7.10194,0 13.87355,-3.13806 18.33291,-8.75354 l 57.80645,-71.84517 c 4.62451,-5.61548 6.27613,-13.04774 4.62451,-20.14967 L 234.69419,58.467097 C 233.04258,51.365161 228.41807,45.584516 221.81161,42.446452 L 138.57032,2.4774194 C 135.43226,0.99096774 131.96387,0.16516129 128.49548,0.16516129 Z"
             id="path4781" />
          <path
             inkscape:connector-curvature="0"
             style="fill:#ffffff"
             d="m 212.23226,142.53419 v 0 0 c -0.16516,0 -0.16516,0 0,0 h -0.16516 c -0.16517,0 -0.33033,0 -0.33033,-0.16516 -0.33032,0 -0.66064,-0.16516 -0.99096,-0.16516 -1.15613,-0.16516 -2.1471,-0.33032 -3.13807,-0.33032 -0.49548,0 -0.99097,0 -1.65161,-0.16516 h -0.16516 c -3.46839,-0.33033 -6.27613,-0.66065 -8.91871,-1.48646 -1.15613,-0.49548 -1.48645,-1.15612 -1.81678,-1.81677 0,-0.16516 -0.16516,-0.16516 -0.16516,-0.33032 v 0 l -2.14709,-0.66065 c 0.99096,-7.59742 0.66064,-15.52516 -1.15613,-23.28774 -1.81678,-7.76258 -4.95484,-15.029676 -9.24904,-21.636127 l 1.65162,-1.486452 v -0.330323 c 0,-0.825806 0.16516,-1.651613 0.8258,-2.477419 1.98194,-1.816774 4.45936,-3.303226 7.43226,-5.12 v 0 c 0.49549,-0.330323 0.99097,-0.495484 1.48645,-0.825806 0.99097,-0.495484 1.81678,-0.990968 2.80774,-1.651613 0.16517,-0.165162 0.49549,-0.330323 0.82581,-0.660646 0.16516,-0.165161 0.33033,-0.165161 0.33033,-0.330322 v 0 c 2.31225,-1.981936 2.80774,-5.285161 1.15612,-7.432258 -0.8258,-1.156129 -2.31226,-1.816774 -3.79871,-1.816774 -1.32129,0 -2.47742,0.495483 -3.63355,1.32129 v 0 0 c -0.16516,0.165161 -0.16516,0.165161 -0.33032,0.330323 -0.33032,0.165161 -0.49548,0.495484 -0.8258,0.660645 -0.82581,0.825806 -1.48646,1.486451 -2.1471,2.312258 -0.33032,0.330322 -0.66065,0.825806 -1.15613,1.156129 v 0 c -2.31226,2.477419 -4.45935,4.459355 -6.60645,5.945806 -0.49549,0.330323 -0.99097,0.495484 -1.48645,0.495484 -0.33033,0 -0.66065,0 -0.99097,-0.165161 h -0.33032 v 0 l -1.98194,1.32129 c -2.1471,-2.312258 -4.45935,-4.294193 -6.77161,-6.276129 -9.90968,-7.762581 -21.96645,-12.552258 -34.51871,-13.708387 l -0.16516,-2.147097 C 133.94581,61.44 133.94581,61.44 133.78064,61.274839 c -0.49548,-0.495484 -1.15612,-0.990968 -1.32129,-2.147097 -0.16516,-2.642581 0.16517,-5.615484 0.49549,-8.91871 v -0.165161 c 0,-0.495484 0.16516,-1.156129 0.33032,-1.651613 0.16516,-0.990968 0.33032,-1.981935 0.49548,-3.138065 v -0.990967 -0.495484 0 0 c 0,-2.972903 -2.31225,-5.450323 -5.12,-5.450323 -1.32129,0 -2.64257,0.660646 -3.63354,1.651613 -0.99097,0.990968 -1.48646,2.312258 -1.48646,3.79871 v 0 0 0.330322 0.990968 c 0,1.156129 0.16517,2.147097 0.49549,3.138065 0.16516,0.495484 0.16516,0.990967 0.33032,1.651613 v 0.165161 c 0.33032,3.303226 0.82581,6.276129 0.49549,8.91871 -0.16517,1.156129 -0.82581,1.651612 -1.3213,2.147096 -0.16516,0.165162 -0.16516,0.165162 -0.33032,0.330323 v 0 l -0.16516,2.147097 c -2.9729,0.330322 -5.9458,0.660645 -8.91871,1.32129 -12.71742,2.807742 -23.948385,9.249032 -32.701934,18.498065 l -1.651613,-1.156129 h -0.330322 c -0.330323,0 -0.660645,0.165161 -0.990968,0.165161 -0.495484,0 -0.990968,-0.165161 -1.486452,-0.495484 -2.147096,-1.486452 -4.294193,-3.633548 -6.606451,-6.110968 v 0 C 70.028387,75.47871 69.698064,74.983226 69.202581,74.652903 68.541935,73.827097 67.88129,73.166452 67.055484,72.340645 66.890323,72.175484 66.56,72.010323 66.229677,71.68 66.064516,71.514839 65.899355,71.514839 65.899355,71.349677 v 0 c -0.990968,-0.825806 -2.312258,-1.32129 -3.633549,-1.32129 -1.486451,0 -2.972903,0.660645 -3.798709,1.816774 -1.651613,2.147097 -1.156129,5.450323 1.156129,7.432258 v 0 0 c 0.165161,0 0.165161,0.165162 0.330322,0.165162 0.330323,0.165161 0.495484,0.495483 0.825807,0.660645 0.990968,0.660645 1.816774,1.156129 2.807742,1.651613 0.495484,0.165161 0.990967,0.495484 1.486451,0.825806 v 0 c 2.972904,1.816774 5.450323,3.303226 7.432259,5.12 0.825806,0.825807 0.825806,1.651613 0.825806,2.47742 v 0.330322 0 l 1.651613,1.486452 c -0.330323,0.495484 -0.660645,0.825806 -0.825807,1.32129 -8.258064,13.047741 -11.396129,28.407741 -9.249032,43.602581 l -2.147097,0.66064 c 0,0.16517 -0.165161,0.16517 -0.165161,0.33033 -0.330323,0.66064 -0.825806,1.32129 -1.816774,1.81677 -2.47742,0.82581 -5.450323,1.15613 -8.91871,1.48645 h -0.165161 c -0.495484,0 -1.156129,0 -1.651613,0.16516 -0.990968,0 -1.981936,0.16517 -3.138065,0.33033 -0.330322,0 -0.660645,0.16516 -0.990967,0.16516 -0.165162,0 -0.330323,0 -0.495484,0.16516 v 0 0 c -2.972903,0.66064 -4.789678,3.46839 -4.294194,6.11097 0.495484,2.31225 2.642581,3.79871 5.285162,3.79871 0.495483,0 0.825806,0 1.32129,-0.16516 v 0 0 c 0.165161,0 0.330322,0 0.330322,-0.16517 0.330323,0 0.660646,-0.16516 0.990968,-0.16516 1.156129,-0.33032 1.981936,-0.66064 2.972904,-1.15613 0.495483,-0.16516 0.990967,-0.49548 1.486451,-0.66064 h 0.165161 c 3.138065,-1.15613 5.945807,-2.1471 8.588387,-2.47742 h 0.330323 c 0.990968,0 1.651613,0.49548 2.147097,0.82581 0.165161,0 0.165161,0.16516 0.330322,0.16516 v 0 l 2.312258,-0.33033 c 3.963871,12.22194 11.561291,23.12258 21.636129,31.05033 2.312258,1.81677 4.624517,3.30322 7.101936,4.78967 l -0.990968,2.1471 c 0,0.16516 0.165161,0.16516 0.165161,0.33032 0.330323,0.66065 0.660646,1.48646 0.330323,2.64258 -0.990968,2.47742 -2.477419,4.95484 -4.294194,7.76258 v 0.16517 c -0.330322,0.49548 -0.660645,0.8258 -0.990967,1.32129 -0.660645,0.8258 -1.156129,1.65161 -1.816774,2.64258 -0.165162,0.16516 -0.330323,0.49548 -0.495484,0.8258 0,0.16516 -0.165161,0.33033 -0.165161,0.33033 v 0 0 c -1.321291,2.80774 -0.330323,5.9458 2.147096,7.10193 0.660645,0.33032 1.32129,0.49549 1.981936,0.49549 1.981935,0 3.963871,-1.32129 4.954838,-3.13807 v 0 0 c 0,-0.16516 0.165162,-0.33032 0.165162,-0.33032 0.165161,-0.33032 0.330322,-0.66065 0.495484,-0.82581 0.495483,-1.15613 0.660645,-1.98193 0.990967,-2.9729 0.165162,-0.49549 0.330323,-0.99097 0.495484,-1.48645 v 0 c 1.156126,-3.30323 1.981936,-5.94581 3.468386,-8.25807 0.66065,-0.99097 1.48645,-1.15613 2.1471,-1.48645 0.16516,0 0.16516,0 0.33032,-0.16516 v 0 l 1.15613,-2.1471 c 7.2671,2.80774 15.19484,4.2942 23.12258,4.2942 4.78968,0 9.74452,-0.49549 14.36903,-1.65162 2.97291,-0.66064 5.78065,-1.48645 8.58839,-2.47742 l 0.99097,1.81678 c 0.16516,0 0.16516,0 0.33032,0.16516 0.82581,0.16516 1.48645,0.49548 2.1471,1.48645 1.32129,2.31226 2.31225,5.12 3.46838,8.25807 v 0.16516 c 0.16516,0.49548 0.33033,0.99096 0.49549,1.48645 0.33032,0.99097 0.49548,1.98193 0.99096,2.9729 0.16517,0.33032 0.33033,0.49549 0.49549,0.82581 0,0.16516 0.16516,0.33032 0.16516,0.33032 v 0 0 c 0.99097,1.98194 2.9729,3.13807 4.95484,3.13807 0.66064,0 1.32129,-0.16517 1.98193,-0.49549 1.15613,-0.66064 2.1471,-1.65161 2.47742,-2.9729 0.33033,-1.32129 0.33033,-2.80774 -0.33032,-4.12903 v 0 0 c 0,-0.16517 -0.16516,-0.16517 -0.16516,-0.33033 -0.16516,-0.33032 -0.33032,-0.66064 -0.49548,-0.8258 -0.49549,-0.99097 -1.15613,-1.81678 -1.81678,-2.64258 -0.33032,-0.49549 -0.66064,-0.82581 -0.99097,-1.32129 v -0.16517 c -1.81677,-2.80774 -3.46838,-5.28516 -4.29419,-7.76258 -0.33032,-1.15612 0,-1.81677 0.16516,-2.64258 0,-0.16516 0.16516,-0.16516 0.16516,-0.33032 v 0 l -0.8258,-1.98193 c 8.75354,-5.12 16.1858,-12.3871 21.80129,-21.30581 2.9729,-4.62452 5.28516,-9.74452 6.93677,-14.86452 l 1.98194,0.33033 c 0.16516,0 0.16516,-0.16517 0.33032,-0.16517 0.66065,-0.33032 1.15613,-0.8258 2.1471,-0.8258 h 0.33032 c 2.64258,0.33032 5.45032,1.32129 8.58839,2.47742 h 0.16516 c 0.49548,0.16516 0.99096,0.49548 1.48645,0.66064 0.99097,0.49549 1.81677,0.82581 2.9729,1.15613 0.33032,0 0.66065,0.16516 0.99097,0.16516 0.16516,0 0.33032,0 0.49548,0.16516 v 0 c 0.49549,0.16517 0.82581,0.16517 1.32129,0.16517 2.47742,0 4.62452,-1.65162 5.28517,-3.79871 0,-1.98194 -1.81678,-4.62452 -4.78968,-5.45033 z m -76.46968,-8.0929 -7.2671,3.46839 -7.26709,-3.46839 -1.81678,-7.76258 4.95484,-6.27613 h 8.0929 l 4.95484,6.27613 z m 43.1071,-17.17677 c 1.32129,5.61548 1.65161,11.23096 1.15613,16.68129 l -25.26968,-7.2671 c -2.31226,-0.66064 -3.63355,-2.9729 -3.13807,-5.28516 0.16517,-0.66065 0.49549,-1.32129 0.99097,-1.81678 l 19.98452,-18.00258 c 2.80774,4.62452 4.95484,9.90968 6.27613,15.69033 z M 164.66581,91.664516 143.02968,107.02452 c -1.81678,1.15612 -4.2942,0.8258 -5.78065,-0.99097 -0.49548,-0.49548 -0.66064,-1.15613 -0.8258,-1.81678 l -1.48646,-26.921286 c 11.39613,1.32129 21.80129,6.44129 29.72904,14.369032 z M 116.76903,78.12129 c 1.81678,-0.330322 3.46839,-0.660645 5.28516,-0.990967 l -1.48645,26.425807 c -0.16516,2.31226 -1.98193,4.29419 -4.45935,4.29419 -0.66065,0 -1.48646,-0.16516 -1.98194,-0.49548 L 92.16,91.664516 c 6.771613,-6.771613 15.19484,-11.396129 24.60903,-13.543226 z m -32.536772,23.4529 19.654192,17.5071 c 1.81678,1.48645 1.98194,4.29419 0.49549,6.11097 -0.49549,0.66064 -1.15613,1.15613 -1.98194,1.32129 l -25.6,7.43226 c -0.990968,-11.23097 1.486452,-22.6271 7.432258,-32.37162 z m -4.459355,44.75871 26.260647,-4.45935 c 2.14709,-0.16516 4.12903,1.32129 4.62451,3.46838 0.16517,0.99097 0.16517,1.81678 -0.16516,2.64259 v 0 l -10.07483,24.27871 C 91.169032,166.31742 83.736774,157.23355 79.772903,146.3329 Z M 140.05677,179.2 c -3.79871,0.82581 -7.59742,1.32129 -11.56129,1.32129 -5.78064,0 -11.39612,-0.99097 -16.68129,-2.64258 l 13.04775,-23.61807 c 1.32129,-1.48645 3.46838,-2.14709 5.28516,-1.15612 0.8258,0.49548 1.48645,1.15612 1.98193,1.81677 v 0 l 12.71742,22.95742 c -1.48645,0.49548 -3.13806,0.82581 -4.78968,1.32129 z m 32.20646,-22.95742 c -4.12904,6.60645 -9.57936,11.89161 -15.85549,16.02065 l -10.40516,-24.93936 c -0.49548,-1.98194 0.33032,-4.12903 2.31226,-5.12 0.66064,-0.33032 1.48645,-0.49548 2.31226,-0.49548 l 26.4258,4.45935 c -0.99097,3.63355 -2.64258,6.93678 -4.78967,10.07484 z"
             id="path4783" />
        </g>
      </g>
      <g
         style="display:inline;opacity:0.85"
         inkscape:label="admin"
         id="layer3-9">
        <g
           style="fill:#0000ff"
           transform="matrix(10.495763,0,0,10.495763,1.7160995,0.66101737)"
           id="g1000">
          <g
             style="fill:#0000ff"
             id="info" />
          <g
             style="fill:#0000ff"
             id="icons" />
        </g>
      </g>
      <g
         style="display:inline"
         inkscape:label="RC"
         id="layer1-3">
        <g
           style="fill:#000080"
           transform="matrix(2.4387519,0,0,2.4387519,164.34907,179.69681)"
           id="g4741">
          <path
             style="fill:#000080"
             d="M 28,16 V 14 L 25.894,13.617 C 25.855,13.366 25.806,13.118 25.746,12.874 L 27.545,11.715 26.78,9.867 24.688,10.319 C 24.556,10.103 24.415,9.893 24.266,9.69 L 25.485,7.929 24.071,6.515 22.31,7.734 C 22.107,7.585 21.897,7.444 21.681,7.312 L 22.133,5.22 20.285,4.455 19.126,6.254 C 18.882,6.195 18.634,6.145 18.383,6.106 L 18,4 H 16 L 15.617,6.106 C 15.366,6.145 15.118,6.194 14.874,6.254 L 13.715,4.455 11.867,5.22 12.319,7.312 C 12.103,7.444 11.893,7.585 11.69,7.734 L 9.929,6.515 8.515,7.929 9.734,9.69 C 9.585,9.893 9.444,10.103 9.312,10.319 L 7.22,9.867 6.455,11.715 8.254,12.874 C 8.195,13.118 8.145,13.366 8.106,13.617 L 6,14 v 2 l 2.106,0.383 c 0.039,0.251 0.088,0.499 0.148,0.743 l -1.799,1.159 0.765,1.848 2.092,-0.452 c 0.132,0.216 0.273,0.426 0.422,0.629 l -1.219,1.761 1.414,1.414 1.761,-1.219 c 0.203,0.149 0.413,0.29 0.629,0.422 l -0.452,2.092 1.848,0.765 1.159,-1.799 c 0.244,0.059 0.492,0.109 0.743,0.148 L 16,26 h 2 l 0.383,-2.106 c 0.251,-0.039 0.499,-0.088 0.743,-0.148 l 1.159,1.799 1.848,-0.765 -0.452,-2.092 c 0.216,-0.132 0.426,-0.273 0.629,-0.422 l 1.761,1.219 1.414,-1.414 -1.219,-1.761 c 0.149,-0.203 0.29,-0.413 0.422,-0.629 l 2.092,0.452 0.765,-1.848 -1.799,-1.159 c 0.059,-0.244 0.109,-0.492 0.148,-0.743 z m -11,3.35 c -2.402,0 -4.35,-1.948 -4.35,-4.35 0,-2.402 1.948,-4.35 4.35,-4.35 2.402,0 4.35,1.948 4.35,4.35 0,2.402 -1.948,4.35 -4.35,4.35 z"
             id="path4743"
             inkscape:connector-curvature="0"
             sodipodi:nodetypes="cccccccccccccccccccccccccccccccccccccccccccccccccccccccccccccccccsssss" />
        </g>
      </g>
    </g>
  </g>
  <g
     inkscape:groupmode="layer"
     id="layer6"
     inkscape:label="pencil 1"
     style="display:none">
    <path
       id="path3848"
       d="M 18.865238,3.6676862 20.418314,5.2389266 13.270533,12.353027 11.336,12.75 11.699671,10.78103 Z m -6.03444,8.1369968 c 0.0632,0.06282 0.164995,0.06282 0.227815,0 l 6.532454,-6.4802313 c 0.0632,-0.063198 0.0632,-0.1646169 3.78e-4,-0.2281931 -0.06282,-0.062819 -0.165374,-0.062819 -0.228193,0 l -6.532454,6.4809874 c -0.0632,0.06244 -0.06282,0.164617 0,0.227437 z M 12.246502,10.99787 c -0.06282,0.06282 -0.06282,0.165374 0,0.228194 0.06282,0.06244 0.164996,0.06282 0.227815,0 l 6.532832,-6.4809883 c 0.06244,-0.062441 0.06244,-0.1646169 0,-0.2274363 -0.0632,-0.062819 -0.164995,-0.062819 -0.227436,-3.784e-4 z"
       inkscape:connector-curvature="0"
       sodipodi:nodetypes="cccccccccccccccccccc"
       style="fill:#2f5dbc;fill-opacity:1;stroke-width:0.37842974" />
  </g>
</svg>
