<?xml version="1.0" encoding="UTF-8" standalone="no"?>
<svg
   xmlns:dc="http://purl.org/dc/elements/1.1/"
   xmlns:cc="http://creativecommons.org/ns#"
   xmlns:rdf="http://www.w3.org/1999/02/22-rdf-syntax-ns#"
   xmlns:svg="http://www.w3.org/2000/svg"
   xmlns="http://www.w3.org/2000/svg"
   xmlns:sodipodi="http://sodipodi.sourceforge.net/DTD/sodipodi-0.dtd"
   xmlns:inkscape="http://www.inkscape.org/namespaces/inkscape"
   width="256px"
   height="249px"
   viewBox="0 0 256 249"
   version="1.1"
   preserveAspectRatio="xMidYMid"
   id="svg2"
   inkscape:version="0.92.2 5c3e80d, 2017-08-06"
   sodipodi:docname="kubernetes-kubeadm.svg"
   inkscape:export-filename="kubernetes-kubeadm.png"
   inkscape:export-xdpi="18.674202"
   inkscape:export-ydpi="18.674202">
  <metadata
     id="metadata16">
    <rdf:RDF>
      <cc:Work
         rdf:about="">
        <dc:format>image/svg+xml</dc:format>
        <dc:type
           rdf:resource="http://purl.org/dc/dcmitype/StillImage" />
        <dc:title></dc:title>
      </cc:Work>
    </rdf:RDF>
  </metadata>
  <defs
     id="defs14" />
  <sodipodi:namedview
     pagecolor="#ffffff"
     bordercolor="#666666"
     borderopacity="1"
     objecttolerance="10"
     gridtolerance="10"
     guidetolerance="10"
     inkscape:pageopacity="0"
     inkscape:pageshadow="2"
     inkscape:window-width="1195"
     inkscape:window-height="788"
     id="namedview12"
     showgrid="false"
     inkscape:zoom="0.94779116"
     inkscape:cx="-211.20975"
     inkscape:cy="124.5"
     inkscape:window-x="216"
     inkscape:window-y="64"
     inkscape:window-maximized="0"
     inkscape:current-layer="layer3" />
  <g
     inkscape:groupmode="layer"
     id="layer2"
     inkscape:label="kube-layer"
     style="display:inline;opacity:1">
    <g
       id="g4777"
       transform="matrix(0.98336641,0,0,0.98336641,0.2361844,1.05783)">
      <path
         id="path4779"
         d="m 82.085161,244.93419 c -5.945806,0 -11.56129,-2.64258 -15.36,-7.43226 L 8.9187097,165.65677 C 5.12,160.8671 3.6335484,154.75613 5.12,148.81032 L 25.765161,59.127742 C 27.086452,53.181936 31.050323,48.392258 36.500645,45.749677 L 120.07226,5.7806452 c 2.64258,-1.3212904 5.61548,-1.9819355 8.58838,-1.9819355 2.97291,0 5.94581,0.6606451 8.58839,1.9819355 l 83.57162,39.8038708 c 5.45032,2.642581 9.41419,7.432258 10.73548,13.378065 l 20.64516,89.682579 c 1.32129,5.94581 0,12.05677 -3.79871,16.84645 l -57.80645,71.84516 c -3.79871,4.62452 -9.4142,7.43226 -15.36,7.43226 z"
         style="fill:#326de6"
         inkscape:connector-curvature="0" />
      <path
         id="path4781"
         d="m 128.49548,7.9277419 c 2.31226,0 4.62452,0.4954839 6.77162,1.4864517 l 83.57161,39.8038704 c 4.29419,2.147097 7.59742,6.110968 8.58839,10.735484 l 20.64516,89.682582 c 1.15613,4.78968 0,9.74451 -3.13807,13.54322 l -57.80645,71.84517 c -2.9729,3.79871 -7.59742,5.9458 -12.3871,5.9458 H 82.085161 c -4.789677,0 -9.414193,-2.14709 -12.387097,-5.9458 L 11.891613,163.17935 C 8.9187097,159.38064 7.7625807,154.42581 8.7535484,149.63613 L 29.39871,59.953548 C 30.554839,55.163871 33.692903,51.2 37.987097,49.218064 L 121.55871,9.2490323 c 2.1471,-0.8258065 4.62452,-1.3212904 6.93677,-1.3212904 z m 0,-7.76258061 v 0 c -3.46838,0 -6.93677,0.82580645 -10.24,2.31225811 L 34.683871,42.446452 C 28.077419,45.584516 23.452903,51.365161 21.80129,58.467097 L 1.156129,148.14968 c -1.65161287,7.10193 0,14.36903 4.6245162,20.14967 l 57.8064518,71.84517 c 4.459355,5.61548 11.230968,8.75354 18.332903,8.75354 h 92.65548 c 7.10194,0 13.87355,-3.13806 18.33291,-8.75354 l 57.80645,-71.84517 c 4.62451,-5.61548 6.27613,-13.04774 4.62451,-20.14967 L 234.69419,58.467097 C 233.04258,51.365161 228.41807,45.584516 221.81161,42.446452 L 138.57032,2.4774194 C 135.43226,0.99096774 131.96387,0.16516129 128.49548,0.16516129 Z"
         style="fill:#ffffff"
         inkscape:connector-curvature="0" />
      <path
         id="path4783"
         d="m 212.23226,142.53419 v 0 0 c -0.16516,0 -0.16516,0 0,0 h -0.16516 c -0.16517,0 -0.33033,0 -0.33033,-0.16516 -0.33032,0 -0.66064,-0.16516 -0.99096,-0.16516 -1.15613,-0.16516 -2.1471,-0.33032 -3.13807,-0.33032 -0.49548,0 -0.99097,0 -1.65161,-0.16516 h -0.16516 c -3.46839,-0.33033 -6.27613,-0.66065 -8.91871,-1.48646 -1.15613,-0.49548 -1.48645,-1.15612 -1.81678,-1.81677 0,-0.16516 -0.16516,-0.16516 -0.16516,-0.33032 v 0 l -2.14709,-0.66065 c 0.99096,-7.59742 0.66064,-15.52516 -1.15613,-23.28774 -1.81678,-7.76258 -4.95484,-15.029676 -9.24904,-21.636127 l 1.65162,-1.486452 v -0.330323 c 0,-0.825806 0.16516,-1.651613 0.8258,-2.477419 1.98194,-1.816774 4.45936,-3.303226 7.43226,-5.12 v 0 c 0.49549,-0.330323 0.99097,-0.495484 1.48645,-0.825806 0.99097,-0.495484 1.81678,-0.990968 2.80774,-1.651613 0.16517,-0.165162 0.49549,-0.330323 0.82581,-0.660646 0.16516,-0.165161 0.33033,-0.165161 0.33033,-0.330322 v 0 c 2.31225,-1.981936 2.80774,-5.285161 1.15612,-7.432258 -0.8258,-1.156129 -2.31226,-1.816774 -3.79871,-1.816774 -1.32129,0 -2.47742,0.495483 -3.63355,1.32129 v 0 0 c -0.16516,0.165161 -0.16516,0.165161 -0.33032,0.330323 -0.33032,0.165161 -0.49548,0.495484 -0.8258,0.660645 -0.82581,0.825806 -1.48646,1.486451 -2.1471,2.312258 -0.33032,0.330322 -0.66065,0.825806 -1.15613,1.156129 v 0 c -2.31226,2.477419 -4.45935,4.459355 -6.60645,5.945806 -0.49549,0.330323 -0.99097,0.495484 -1.48645,0.495484 -0.33033,0 -0.66065,0 -0.99097,-0.165161 h -0.33032 v 0 l -1.98194,1.32129 c -2.1471,-2.312258 -4.45935,-4.294193 -6.77161,-6.276129 -9.90968,-7.762581 -21.96645,-12.552258 -34.51871,-13.708387 l -0.16516,-2.147097 C 133.94581,61.44 133.94581,61.44 133.78064,61.274839 c -0.49548,-0.495484 -1.15612,-0.990968 -1.32129,-2.147097 -0.16516,-2.642581 0.16517,-5.615484 0.49549,-8.91871 v -0.165161 c 0,-0.495484 0.16516,-1.156129 0.33032,-1.651613 0.16516,-0.990968 0.33032,-1.981935 0.49548,-3.138065 v -0.990967 -0.495484 0 0 c 0,-2.972903 -2.31225,-5.450323 -5.12,-5.450323 -1.32129,0 -2.64257,0.660646 -3.63354,1.651613 -0.99097,0.990968 -1.48646,2.312258 -1.48646,3.79871 v 0 0 0.330322 0.990968 c 0,1.156129 0.16517,2.147097 0.49549,3.138065 0.16516,0.495484 0.16516,0.990967 0.33032,1.651613 v 0.165161 c 0.33032,3.303226 0.82581,6.276129 0.49549,8.91871 -0.16517,1.156129 -0.82581,1.651612 -1.3213,2.147096 -0.16516,0.165162 -0.16516,0.165162 -0.33032,0.330323 v 0 l -0.16516,2.147097 c -2.9729,0.330322 -5.9458,0.660645 -8.91871,1.32129 -12.71742,2.807742 -23.948385,9.249032 -32.701934,18.498065 l -1.651613,-1.156129 h -0.330322 c -0.330323,0 -0.660645,0.165161 -0.990968,0.165161 -0.495484,0 -0.990968,-0.165161 -1.486452,-0.495484 -2.147096,-1.486452 -4.294193,-3.633548 -6.606451,-6.110968 v 0 C 70.028387,75.47871 69.698064,74.983226 69.202581,74.652903 68.541935,73.827097 67.88129,73.166452 67.055484,72.340645 66.890323,72.175484 66.56,72.010323 66.229677,71.68 66.064516,71.514839 65.899355,71.514839 65.899355,71.349677 v 0 c -0.990968,-0.825806 -2.312258,-1.32129 -3.633549,-1.32129 -1.486451,0 -2.972903,0.660645 -3.798709,1.816774 -1.651613,2.147097 -1.156129,5.450323 1.156129,7.432258 v 0 0 c 0.165161,0 0.165161,0.165162 0.330322,0.165162 0.330323,0.165161 0.495484,0.495483 0.825807,0.660645 0.990968,0.660645 1.816774,1.156129 2.807742,1.651613 0.495484,0.165161 0.990967,0.495484 1.486451,0.825806 v 0 c 2.972904,1.816774 5.450323,3.303226 7.432259,5.12 0.825806,0.825807 0.825806,1.651613 0.825806,2.47742 v 0.330322 0 l 1.651613,1.486452 c -0.330323,0.495484 -0.660645,0.825806 -0.825807,1.32129 -8.258064,13.047741 -11.396129,28.407741 -9.249032,43.602581 l -2.147097,0.66064 c 0,0.16517 -0.165161,0.16517 -0.165161,0.33033 -0.330323,0.66064 -0.825806,1.32129 -1.816774,1.81677 -2.47742,0.82581 -5.450323,1.15613 -8.91871,1.48645 h -0.165161 c -0.495484,0 -1.156129,0 -1.651613,0.16516 -0.990968,0 -1.981936,0.16517 -3.138065,0.33033 -0.330322,0 -0.660645,0.16516 -0.990967,0.16516 -0.165162,0 -0.330323,0 -0.495484,0.16516 v 0 0 c -2.972903,0.66064 -4.789678,3.46839 -4.294194,6.11097 0.495484,2.31225 2.642581,3.79871 5.285162,3.79871 0.495483,0 0.825806,0 1.32129,-0.16516 v 0 0 c 0.165161,0 0.330322,0 0.330322,-0.16517 0.330323,0 0.660646,-0.16516 0.990968,-0.16516 1.156129,-0.33032 1.981936,-0.66064 2.972904,-1.15613 0.495483,-0.16516 0.990967,-0.49548 1.486451,-0.66064 h 0.165161 c 3.138065,-1.15613 5.945807,-2.1471 8.588387,-2.47742 h 0.330323 c 0.990968,0 1.651613,0.49548 2.147097,0.82581 0.165161,0 0.165161,0.16516 0.330322,0.16516 v 0 l 2.312258,-0.33033 c 3.963871,12.22194 11.561291,23.12258 21.636129,31.05033 2.312258,1.81677 4.624517,3.30322 7.101936,4.78967 l -0.990968,2.1471 c 0,0.16516 0.165161,0.16516 0.165161,0.33032 0.330323,0.66065 0.660646,1.48646 0.330323,2.64258 -0.990968,2.47742 -2.477419,4.95484 -4.294194,7.76258 v 0.16517 c -0.330322,0.49548 -0.660645,0.8258 -0.990967,1.32129 -0.660645,0.8258 -1.156129,1.65161 -1.816774,2.64258 -0.165162,0.16516 -0.330323,0.49548 -0.495484,0.8258 0,0.16516 -0.165161,0.33033 -0.165161,0.33033 v 0 0 c -1.321291,2.80774 -0.330323,5.9458 2.147096,7.10193 0.660645,0.33032 1.32129,0.49549 1.981936,0.49549 1.981935,0 3.963871,-1.32129 4.954838,-3.13807 v 0 0 c 0,-0.16516 0.165162,-0.33032 0.165162,-0.33032 0.165161,-0.33032 0.330322,-0.66065 0.495484,-0.82581 0.495483,-1.15613 0.660645,-1.98193 0.990967,-2.9729 0.165162,-0.49549 0.330323,-0.99097 0.495484,-1.48645 v 0 c 1.156126,-3.30323 1.981936,-5.94581 3.468386,-8.25807 0.66065,-0.99097 1.48645,-1.15613 2.1471,-1.48645 0.16516,0 0.16516,0 0.33032,-0.16516 v 0 l 1.15613,-2.1471 c 7.2671,2.80774 15.19484,4.2942 23.12258,4.2942 4.78968,0 9.74452,-0.49549 14.36903,-1.65162 2.97291,-0.66064 5.78065,-1.48645 8.58839,-2.47742 l 0.99097,1.81678 c 0.16516,0 0.16516,0 0.33032,0.16516 0.82581,0.16516 1.48645,0.49548 2.1471,1.48645 1.32129,2.31226 2.31225,5.12 3.46838,8.25807 v 0.16516 c 0.16516,0.49548 0.33033,0.99096 0.49549,1.48645 0.33032,0.99097 0.49548,1.98193 0.99096,2.9729 0.16517,0.33032 0.33033,0.49549 0.49549,0.82581 0,0.16516 0.16516,0.33032 0.16516,0.33032 v 0 0 c 0.99097,1.98194 2.9729,3.13807 4.95484,3.13807 0.66064,0 1.32129,-0.16517 1.98193,-0.49549 1.15613,-0.66064 2.1471,-1.65161 2.47742,-2.9729 0.33033,-1.32129 0.33033,-2.80774 -0.33032,-4.12903 v 0 0 c 0,-0.16517 -0.16516,-0.16517 -0.16516,-0.33033 -0.16516,-0.33032 -0.33032,-0.66064 -0.49548,-0.8258 -0.49549,-0.99097 -1.15613,-1.81678 -1.81678,-2.64258 -0.33032,-0.49549 -0.66064,-0.82581 -0.99097,-1.32129 v -0.16517 c -1.81677,-2.80774 -3.46838,-5.28516 -4.29419,-7.76258 -0.33032,-1.15612 0,-1.81677 0.16516,-2.64258 0,-0.16516 0.16516,-0.16516 0.16516,-0.33032 v 0 l -0.8258,-1.98193 c 8.75354,-5.12 16.1858,-12.3871 21.80129,-21.30581 2.9729,-4.62452 5.28516,-9.74452 6.93677,-14.86452 l 1.98194,0.33033 c 0.16516,0 0.16516,-0.16517 0.33032,-0.16517 0.66065,-0.33032 1.15613,-0.8258 2.1471,-0.8258 h 0.33032 c 2.64258,0.33032 5.45032,1.32129 8.58839,2.47742 h 0.16516 c 0.49548,0.16516 0.99096,0.49548 1.48645,0.66064 0.99097,0.49549 1.81677,0.82581 2.9729,1.15613 0.33032,0 0.66065,0.16516 0.99097,0.16516 0.16516,0 0.33032,0 0.49548,0.16516 v 0 c 0.49549,0.16517 0.82581,0.16517 1.32129,0.16517 2.47742,0 4.62452,-1.65162 5.28517,-3.79871 0,-1.98194 -1.81678,-4.62452 -4.78968,-5.45033 z m -76.46968,-8.0929 -7.2671,3.46839 -7.26709,-3.46839 -1.81678,-7.76258 4.95484,-6.27613 h 8.0929 l 4.95484,6.27613 z m 43.1071,-17.17677 c 1.32129,5.61548 1.65161,11.23096 1.15613,16.68129 l -25.26968,-7.2671 c -2.31226,-0.66064 -3.63355,-2.9729 -3.13807,-5.28516 0.16517,-0.66065 0.49549,-1.32129 0.99097,-1.81678 l 19.98452,-18.00258 c 2.80774,4.62452 4.95484,9.90968 6.27613,15.69033 z M 164.66581,91.664516 143.02968,107.02452 c -1.81678,1.15612 -4.2942,0.8258 -5.78065,-0.99097 -0.49548,-0.49548 -0.66064,-1.15613 -0.8258,-1.81678 l -1.48646,-26.921286 c 11.39613,1.32129 21.80129,6.44129 29.72904,14.369032 z M 116.76903,78.12129 c 1.81678,-0.330322 3.46839,-0.660645 5.28516,-0.990967 l -1.48645,26.425807 c -0.16516,2.31226 -1.98193,4.29419 -4.45935,4.29419 -0.66065,0 -1.48646,-0.16516 -1.98194,-0.49548 L 92.16,91.664516 c 6.771613,-6.771613 15.19484,-11.396129 24.60903,-13.543226 z m -32.536772,23.4529 19.654192,17.5071 c 1.81678,1.48645 1.98194,4.29419 0.49549,6.11097 -0.49549,0.66064 -1.15613,1.15613 -1.98194,1.32129 l -25.6,7.43226 c -0.990968,-11.23097 1.486452,-22.6271 7.432258,-32.37162 z m -4.459355,44.75871 26.260647,-4.45935 c 2.14709,-0.16516 4.12903,1.32129 4.62451,3.46838 0.16517,0.99097 0.16517,1.81678 -0.16516,2.64259 v 0 l -10.07483,24.27871 C 91.169032,166.31742 83.736774,157.23355 79.772903,146.3329 Z M 140.05677,179.2 c -3.79871,0.82581 -7.59742,1.32129 -11.56129,1.32129 -5.78064,0 -11.39612,-0.99097 -16.68129,-2.64258 l 13.04775,-23.61807 c 1.32129,-1.48645 3.46838,-2.14709 5.28516,-1.15612 0.8258,0.49548 1.48645,1.15612 1.98193,1.81677 v 0 l 12.71742,22.95742 c -1.48645,0.49548 -3.13806,0.82581 -4.78968,1.32129 z m 32.20646,-22.95742 c -4.12904,6.60645 -9.57936,11.89161 -15.85549,16.02065 l -10.40516,-24.93936 c -0.49548,-1.98194 0.33032,-4.12903 2.31226,-5.12 0.66064,-0.33032 1.48645,-0.49548 2.31226,-0.49548 l 26.4258,4.45935 c -0.99097,3.63355 -2.64258,6.93678 -4.78967,10.07484 z"
         style="fill:#ffffff"
         inkscape:connector-curvature="0" />
    </g>
  </g>
  <g
     inkscape:groupmode="layer"
     id="layer3"
     inkscape:label="admin"
     style="display:inline;opacity:0.85"
     sodipodi:insensitive="true">
    <g
       id="g1000"
       transform="matrix(10.495763,0,0,10.495763,1.7160995,0.66101737)"
       style="fill:#0000ff">
      <g
         id="info"
         style="fill:#0000ff" />
      <g
         id="icons"
         style="fill:#0000ff">
        <path
           id="user2"
           d="M 12,0 C 5.4,0 0,5.4 0,12 0,18.6 5.4,24 12,24 18.6,24 24,18.6 24,12 24,5.4 18.6,0 12,0 Z m 0,4 c 2.2,0 4,2.2 4,5 0,2.8 -1.8,5 -4,5 C 9.8,14 8,11.8 8,9 8,6.2 9.8,4 12,4 Z m 6.6,15.5 C 16.9,21 14.5,22 12,22 9.5,22 7.1,21 5.4,19.5 5,19.1 4.9,18.5 5.3,18.1 c 1.1,-1.3 2.6,-2.2 4.2,-2.7 0.8,0.4 1.6,0.6 2.5,0.6 0.9,0 1.7,-0.2 2.5,-0.6 1.7,0.5 3.1,1.4 4.2,2.7 0.4,0.4 0.4,1 -0.1,1.4 z"
           inkscape:connector-curvature="0"
           style="fill:#0000ff" />
      </g>
    </g>
  </g>
  <g
     inkscape:groupmode="layer"
     id="layer1"
     inkscape:label="RC"
     style="display:inline"
     sodipodi:insensitive="true">
    <g
       id="g4741"
       transform="matrix(2.4387519,0,0,2.4387519,164.34907,179.69681)"
       style="fill:#000080">
      <path
         sodipodi:nodetypes="cccccccccccccccccccccccccccccccccccccccccccccccccccccccccccccccccsssss"
         inkscape:connector-curvature="0"
         id="path4743"
         d="M 28,16 V 14 L 25.894,13.617 C 25.855,13.366 25.806,13.118 25.746,12.874 L 27.545,11.715 26.78,9.867 24.688,10.319 C 24.556,10.103 24.415,9.893 24.266,9.69 L 25.485,7.929 24.071,6.515 22.31,7.734 C 22.107,7.585 21.897,7.444 21.681,7.312 L 22.133,5.22 20.285,4.455 19.126,6.254 C 18.882,6.195 18.634,6.145 18.383,6.106 L 18,4 H 16 L 15.617,6.106 C 15.366,6.145 15.118,6.194 14.874,6.254 L 13.715,4.455 11.867,5.22 12.319,7.312 C 12.103,7.444 11.893,7.585 11.69,7.734 L 9.929,6.515 8.515,7.929 9.734,9.69 C 9.585,9.893 9.444,10.103 9.312,10.319 L 7.22,9.867 6.455,11.715 8.254,12.874 C 8.195,13.118 8.145,13.366 8.106,13.617 L 6,14 v 2 l 2.106,0.383 c 0.039,0.251 0.088,0.499 0.148,0.743 l -1.799,1.159 0.765,1.848 2.092,-0.452 c 0.132,0.216 0.273,0.426 0.422,0.629 l -1.219,1.761 1.414,1.414 1.761,-1.219 c 0.203,0.149 0.413,0.29 0.629,0.422 l -0.452,2.092 1.848,0.765 1.159,-1.799 c 0.244,0.059 0.492,0.109 0.743,0.148 L 16,26 h 2 l 0.383,-2.106 c 0.251,-0.039 0.499,-0.088 0.743,-0.148 l 1.159,1.799 1.848,-0.765 -0.452,-2.092 c 0.216,-0.132 0.426,-0.273 0.629,-0.422 l 1.761,1.219 1.414,-1.414 -1.219,-1.761 c 0.149,-0.203 0.29,-0.413 0.422,-0.629 l 2.092,0.452 0.765,-1.848 -1.799,-1.159 c 0.059,-0.244 0.109,-0.492 0.148,-0.743 z m -11,3.35 c -2.402,0 -4.35,-1.948 -4.35,-4.35 0,-2.402 1.948,-4.35 4.35,-4.35 2.402,0 4.35,1.948 4.35,4.35 0,2.402 -1.948,4.35 -4.35,4.35 z"
         style="fill:#000080" />
    </g>
  </g>
</svg>
