<?xml version="1.0" encoding="UTF-8" standalone="no"?>
<svg
   xmlns:dc="http://purl.org/dc/elements/1.1/"
   xmlns:cc="http://creativecommons.org/ns#"
   xmlns:rdf="http://www.w3.org/1999/02/22-rdf-syntax-ns#"
   xmlns:svg="http://www.w3.org/2000/svg"
   xmlns="http://www.w3.org/2000/svg"
   xmlns:sodipodi="http://sodipodi.sourceforge.net/DTD/sodipodi-0.dtd"
   xmlns:inkscape="http://www.inkscape.org/namespaces/inkscape"
   enable-background="new 0 0 24 24"
   height="24px"
   id="Layer_1"
   version="1.1"
   viewBox="0 0 24 24"
   width="24px"
   xml:space="preserve"
   inkscape:version="0.91 r13725"
   sodipodi:docname="electronics-routes-exposed.svg"><metadata
     id="metadata4030"><rdf:RDF><cc:Work
         rdf:about=""><dc:format>image/svg+xml</dc:format><dc:type
           rdf:resource="http://purl.org/dc/dcmitype/StillImage" /><dc:title /></cc:Work></rdf:RDF></metadata><defs
     id="defs4028" /><sodipodi:namedview
     pagecolor="#ffffff"
     bordercolor="#666666"
     borderopacity="1"
     objecttolerance="10"
     gridtolerance="10"
     guidetolerance="10"
     inkscape:pageopacity="0"
     inkscape:pageshadow="2"
     inkscape:window-width="1079"
     inkscape:window-height="761"
     id="namedview4026"
     showgrid="false"
     inkscape:zoom="16.75"
     inkscape:cx="12"
     inkscape:cy="16.152684"
     inkscape:window-x="40"
     inkscape:window-y="84"
     inkscape:window-maximized="0"
     inkscape:current-layer="Layer_1" /><path
     d="m 13,6 1,0 c 0.6,0 1,-0.2 1,-0.8 l 0,-4 C 15,0.7 14.6,0 14,0 L 10,0 C 9.4,0 9,0.7 9,1.2 l 0,4 C 9,5.8 9.4,6 10,6 l 1,0 c 0,4.271403 0,7.700996 0,12 l -1,0 c -0.6,0 -1,0.7 -1,1.2 l 0,4 c 0,0.6 0.4,0.8 1,0.8 l 4,0 c 0.6,0 1,-0.2 1,-0.8 l 0,-4 C 15,18.6 14.6,18 14,18 l -1,0 c 0,-3.993043 0,-8.4219385 0,-12 z m 1,13 0,4 -4,0 0,-4 z m -4,-14 0,-4 4,0 0,4 z"
     id="path4024"
     inkscape:connector-curvature="0"
     sodipodi:nodetypes="cssssssccccsssssscccccssccccccc"
     style="fill:#800000" /></svg>