<?xml version="1.0" encoding="UTF-8" standalone="no"?>
<svg
   xmlns:dc="http://purl.org/dc/elements/1.1/"
   xmlns:cc="http://creativecommons.org/ns#"
   xmlns:rdf="http://www.w3.org/1999/02/22-rdf-syntax-ns#"
   xmlns:svg="http://www.w3.org/2000/svg"
   xmlns="http://www.w3.org/2000/svg"
   xmlns:sodipodi="http://sodipodi.sourceforge.net/DTD/sodipodi-0.dtd"
   xmlns:inkscape="http://www.inkscape.org/namespaces/inkscape"
   enable-background="new 0 0 24 24"
   height="24px"
   id="Layer_1"
   version="1.1"
   viewBox="0 0 24 24"
   width="24px"
   xml:space="preserve"
   inkscape:version="0.92.2 5c3e80d, 2017-08-06"
   sodipodi:docname="services-External.svg"
   inkscape:export-filename="/Users/csabourdin/Documents/img-icones-svg/service-External.png"
   inkscape:export-xdpi="256"
   inkscape:export-ydpi="256"><metadata
     id="metadata4030"><rdf:RDF><cc:Work
         rdf:about=""><dc:format>image/svg+xml</dc:format><dc:type
           rdf:resource="http://purl.org/dc/dcmitype/StillImage" /><dc:title></dc:title></cc:Work></rdf:RDF></metadata><defs
     id="defs4028" /><sodipodi:namedview
     pagecolor="#ffffff"
     bordercolor="#666666"
     borderopacity="1"
     objecttolerance="10"
     gridtolerance="10"
     guidetolerance="10"
     inkscape:pageopacity="0"
     inkscape:pageshadow="2"
     inkscape:window-width="1423"
     inkscape:window-height="832"
     id="namedview4026"
     showgrid="false"
     inkscape:zoom="30.058075"
     inkscape:cx="13.157977"
     inkscape:cy="9.7471123"
     inkscape:window-x="24"
     inkscape:window-y="65"
     inkscape:window-maximized="0"
     inkscape:current-layer="Layer_1" /><g
     id="g861"
     transform="matrix(0.26071538,0,0,0.26071538,31.458937,22.862204)"><path
       style="fill:#0000ff"
       sodipodi:nodetypes="sscccsscssssscccscssssssssccccsssssssscccscscsssccscccccccc"
       inkscape:connector-curvature="0"
       id="path4024"
       d="m -85.369464,-42.505059 h -7 v -19.574915 h -2 v 19.574915 h -6.999996 c -1.1059,0 -1.99872,-0.122746 -1.99875,1.151582 l -10e-4,36.5332207 h -1 c -0.6,0 -1,0.7 -1,1.2 v 3.99999968 c 0,0.6 0.4,0.80000002 1,0.80000002 h 4 c 0.599996,0 0.999996,-0.20000002 0.999996,-0.80000002 V -3.6202563 c 0,-0.5 -0.4,-1.2 -0.999996,-1.2 h -1 V -40.505059 h 6.999996 v 5 h -1 c -0.6,0 -1,0.7 -1,1.2 v 4 c 0,0.6 0.4,0.8 1,0.8 h 4 c 0.6,0 1,-0.2 1,-0.8 v -4 c 0,-0.6 -0.4,-1.2 -1,-1.2 h -1 v -5 h 7 v 35.6848027 h -1 c -0.6,0 -1,0.7 -1,1.2 v 3.99999968 c 0,0.6 0.4,0.80000002 1,0.80000002 h 4 c 0.6,0 1,-0.20000002 1,-0.80000002 V -3.6202563 c 0,-0.6 -0.4,-1.2 -1,-1.2 h -1 c 0.01327,-3.153989 0.044,-36.2887737 0.044,-36.2887737 -0.500145,-1.015465 -0.372358,-1.24634 -2.044,-1.396029 z m -14.999996,38.6848027 v 3.99999968 h -4 V -3.8202563 Z m 8.999996,-30.6848027 v 4 h -4 v -4 z m 9,30.6848027 v 3.99999968 h -4 V -3.8202563 Z" /><g
       transform="matrix(1.4798986,0,0,1.8737854,56.559555,41.983213)"
       id="g835"><path
         style="opacity:1;fill:none;fill-opacity:1;stroke:#0000ff;stroke-width:2;stroke-miterlimit:4;stroke-dasharray:none;stroke-dashoffset:0;stroke-opacity:1;paint-order:stroke fill markers"
         d="m -75.00313,-33.979266 c 0,0 -24.49252,0.146121 -28.67772,0.146121 -7.10974,0 -12.83346,-0.726019 -12.83346,-6.713166 0,-5.987146 8.39674,-7.803895 12.83346,-7.531492 v 0 c 4.441919,0 29.449177,0.177348 29.449177,0.177348"
         id="path829"
         inkscape:connector-curvature="0"
         sodipodi:nodetypes="cssccc" /><rect
         ry="4.7461486"
         rx="11.755606"
         y="-47.872383"
         x="-84.56002"
         height="13.918848"
         width="23.511211"
         id="rect814"
         style="opacity:1;fill:none;fill-opacity:1;stroke:#0000ff;stroke-width:2;stroke-miterlimit:4;stroke-dasharray:none;stroke-dashoffset:0;stroke-opacity:1;paint-order:stroke fill markers"
         inkscape:transform-center-x="-6.7544528"
         inkscape:transform-center-y="14.859796" /></g></g><g
     id="icon-cogs-g"
     transform="matrix(0.36789033,0,0,0.36789033,2.343557,-0.40137029)"><g
       style="fill:#4d4d4d"
       transform="translate(-250.30508,-247.05085)"
       id="g3429"><g
         style="fill:#4d4d4d"
         id="icomoon-ignore" /><path
         style="fill:#4d4d4d"
         inkscape:connector-curvature="0"
         d="m 263.18644,248.47458 c -6.6274,0 -12,5.3726 -12,12 0,6.6274 5.3726,12 12,12 6.62745,0 12,-5.37255 12,-12 0,-6.62745 -5.37255,-12 -12,-12 z m 6.78975,16 c 0.2145,-1.01135 0.3499,-2.0848 0.39395,-3.2 h 3.18615 c -0.0834,1.1049 -0.3406,2.17785 -0.767,3.2 z m -13.5795,-8 c -0.2145,1.01135 -0.3499,2.0848 -0.39395,3.2 h -3.1861 c 0.0834,-1.10485 0.34055,-2.17785 0.76695,-3.2 z m 11.94065,0 c 0.24035,1.02405 0.38495,2.09635 0.432,3.2 h -4.7829 v -3.2 z m -4.3509,-1.6 v -4.68345 c 0.36475,0.10615 0.7261,0.28425 1.0807,0.53425 0.66455,0.4685 1.3003,1.1902 1.8385,2.08715 0.37205,0.62005 0.6938,1.3104 0.9624,2.0621 h -3.8816 z m -4.5192,-2.0621 c 0.5382,-0.89695 1.1739,-1.6187 1.8385,-2.08715 0.35455,-0.25 0.71595,-0.4281 1.0807,-0.53425 v 4.6835 h -3.8816 c 0.26865,-0.75165 0.5904,-1.442 0.9624,-2.0621 z m 2.9192,3.6621 v 3.2 h -4.78285 c 0.047,-1.10365 0.19165,-2.17595 0.43195,-3.2 z m -8.8028,8 c -0.4264,-1.02215 -0.68355,-2.0951 -0.76695,-3.2 h 3.1861 c 0.044,1.1152 0.17945,2.18865 0.39395,3.2 z m 4.01995,-3.2 h 4.78285 v 3.2 h -4.3509 c -0.2403,-1.024 -0.38495,-2.09635 -0.43195,-3.2 z m 4.78285,4.8 v 4.6835 c -0.3647,-0.10615 -0.7261,-0.2843 -1.0807,-0.53425 -0.6646,-0.4685 -1.30035,-1.19025 -1.8385,-2.08715 -0.37205,-0.6201 -0.69375,-1.31045 -0.96245,-2.0621 z m 4.5192,2.0621 c -0.5382,0.8969 -1.17395,1.61865 -1.8385,2.08715 -0.3546,0.24995 -0.71595,0.4281 -1.0807,0.53425 v -4.6835 h 3.88165 c -0.26865,0.75165 -0.5904,1.442 -0.96245,2.0621 z m -2.9192,-3.6621 v -3.2 h 4.78285 c -0.047,1.10365 -0.19165,2.176 -0.432,3.2 z m 6.3837,-4.8 c -0.044,-1.1152 -0.17945,-2.18865 -0.39395,-3.2 h 2.8131 c 0.4264,1.02215 0.6836,2.09515 0.767,3.2 z m 1.58275,-4.8 h -2.3975 c -0.46595,-1.46905 -1.1094,-2.75735 -1.8829,-3.7857 1.0634,0.5085 2.02645,1.1904 2.86785,2.0318 0.537,0.53695 1.00905,1.12345 1.41255,1.7539 z m -16.12035,-1.7539 c 0.84145,-0.84145 1.8045,-1.5233 2.86785,-2.0318 -0.77355,1.02835 -1.4169,2.31665 -1.8829,3.7857 h -2.39745 c 0.40345,-0.63045 0.87555,-1.21695 1.4125,-1.7539 z m -1.4125,12.9539 h 2.39745 c 0.466,1.46905 1.1094,2.75735 1.88295,3.78575 -1.0634,-0.5085 -2.02645,-1.1904 -2.86785,-2.03185 -0.537,-0.53695 -1.0091,-1.12345 -1.41255,-1.7539 z m 16.1203,1.7539 c -0.8414,0.84145 -1.8045,1.52335 -2.86785,2.03185 0.77355,-1.02835 1.41695,-2.3167 1.8829,-3.78575 h 2.3975 c -0.4035,0.63045 -0.87555,1.21695 -1.41255,1.7539 z"
         id="path3421" /></g></g></svg>