<?xml version="1.0" encoding="UTF-8" standalone="no"?>
<svg
   xmlns:dc="http://purl.org/dc/elements/1.1/"
   xmlns:cc="http://creativecommons.org/ns#"
   xmlns:rdf="http://www.w3.org/1999/02/22-rdf-syntax-ns#"
   xmlns:svg="http://www.w3.org/2000/svg"
   xmlns="http://www.w3.org/2000/svg"
   xmlns:sodipodi="http://sodipodi.sourceforge.net/DTD/sodipodi-0.dtd"
   xmlns:inkscape="http://www.inkscape.org/namespaces/inkscape"
   enable-background="new 0 0 24 24"
   height="24px"
   id="Layer_1"
   version="1.1"
   viewBox="0 0 24 24"
   width="24px"
   xml:space="preserve"
   inkscape:version="0.92.2 5c3e80d, 2017-08-06"
   sodipodi:docname="services-cluster-IP.svg"
   inkscape:export-filename="/Users/csabourdin/Documents/img-icones-svg/services-cluster-IP.png"
   inkscape:export-xdpi="255.25101"
   inkscape:export-ydpi="255.25101"><metadata
     id="metadata4030"><rdf:RDF><cc:Work
         rdf:about=""><dc:format>image/svg+xml</dc:format><dc:type
           rdf:resource="http://purl.org/dc/dcmitype/StillImage" /><dc:title /></cc:Work></rdf:RDF></metadata><defs
     id="defs4028" /><sodipodi:namedview
     pagecolor="#ffffff"
     bordercolor="#666666"
     borderopacity="1"
     objecttolerance="10"
     gridtolerance="10"
     guidetolerance="10"
     inkscape:pageopacity="0"
     inkscape:pageshadow="2"
     inkscape:window-width="1423"
     inkscape:window-height="832"
     id="namedview4026"
     showgrid="false"
     inkscape:zoom="2.9610097"
     inkscape:cx="26.113747"
     inkscape:cy="16.437118"
     inkscape:window-x="24"
     inkscape:window-y="65"
     inkscape:window-maximized="0"
     inkscape:current-layer="Layer_1" /><g
     id="g861"
     transform="matrix(0.26071538,0,0,0.26071538,31.458937,18.862204)"><path
       style="fill:#0000ff"
       sodipodi:nodetypes="cssssssssccccsssssssscccscssssssssccccsssssssscccscssssscsscccccccccccc"
       inkscape:connector-curvature="0"
       id="path4024"
       d="m -85.369464,-27.162658 h -7 v -5 h 1 c 0.6,0 1,-0.2 1,-0.8 v -4 c 0,-0.5 -0.4,-1.2 -1,-1.2 h -4 c -0.6,0 -1,0.7 -1,1.2 v 4 c 0,0.6 0.4,0.8 1,0.8 h 1 v 5 h -6.999996 c -1.10322,0.07695 -1.43935,0.0066 -1.99875,1.151582 0,0 -10e-4,-1.945707 -10e-4,5.848418 h -1 c -0.6,0 -1,0.7 -1,1.2 v 4 c 0,0.6 0.4,0.8 1,0.8 h 4 c 0.599996,0 0.999996,-0.2 0.999996,-0.8 v -4 c 0,-0.5 -0.4,-1.2 -0.999996,-1.2 h -1 v -5 h 6.999996 v 5 h -1 c -0.6,0 -1,0.7 -1,1.2 v 4 c 0,0.6 0.4,0.8 1,0.8 h 4 c 0.6,0 1,-0.2 1,-0.8 v -4 c 0,-0.6 -0.4,-1.2 -1,-1.2 h -1 v -5 h 7 v 5 h -1 c -0.6,0 -1,0.7 -1,1.2 v 4 c 0,0.6 0.4,0.8 1,0.8 h 4 c 0.6,0 1,-0.2 1,-0.8 v -4 c 0,-0.6 -0.4,-1.2 -1,-1.2 h -1 c 0.01327,-3.153989 0.044,-5.603971 0.044,-5.603971 -0.500145,-1.015465 -0.372358,-1.24634 -2.044,-1.396029 z m -14.999996,8 v 4 h -4 v -4 z m 8.999996,0 v 4 h -4 v -4 z m 9,0 v 4 h -4 v -4 z m -13,-14 v -4 h 4 v 4 z" /><g
       transform="matrix(1.4798986,0,0,1.8737854,56.559555,41.983213)"
       id="g835"><path
         style="opacity:1;fill:none;fill-opacity:1;stroke:#0000ff;stroke-width:2;stroke-miterlimit:4;stroke-dasharray:none;stroke-dashoffset:0;stroke-opacity:1;paint-order:stroke fill markers"
         d="m -75.00313,-25.791348 c 0,0 -24.49252,0.146121 -28.67772,0.146121 -7.10974,0 -12.83346,-4.819978 -12.83346,-10.807125 0,-5.987146 5.72372,-10.807124 12.83346,-10.807124 v 0 c 4.441919,0 29.449177,0.177348 29.449177,0.177348"
         id="path829"
         inkscape:connector-curvature="0"
         sodipodi:nodetypes="cssccc" /><rect
         ry="21.614248"
         rx="55.380001"
         y="-47.259476"
         x="-86.457001"
         height="21.614248"
         width="25.666922"
         id="rect814"
         style="opacity:1;fill:none;fill-opacity:1;stroke:#0000ff;stroke-width:2;stroke-miterlimit:4;stroke-dasharray:none;stroke-dashoffset:0;stroke-opacity:1;paint-order:stroke fill markers"
         inkscape:transform-center-x="-6.7544528"
         inkscape:transform-center-y="14.859796" /><path
         style="fill:none;fill-rule:evenodd;stroke:#0000ff;stroke-width:1px;stroke-linecap:butt;stroke-linejoin:miter;stroke-opacity:1"
         d="M -105.00541,-47.022428 -74.231673,-47.682"
         id="path816"
         inkscape:connector-curvature="0"
         sodipodi:nodetypes="cc" /></g></g></svg>