<?xml version="1.0" encoding="UTF-8" standalone="no"?>
<svg
   xmlns:dc="http://purl.org/dc/elements/1.1/"
   xmlns:cc="http://creativecommons.org/ns#"
   xmlns:rdf="http://www.w3.org/1999/02/22-rdf-syntax-ns#"
   xmlns:svg="http://www.w3.org/2000/svg"
   xmlns="http://www.w3.org/2000/svg"
   xmlns:sodipodi="http://sodipodi.sourceforge.net/DTD/sodipodi-0.dtd"
   xmlns:inkscape="http://www.inkscape.org/namespaces/inkscape"
   width="24"
   height="24"
   viewBox="0 0 24 24"
   version="1.1"
   id="svg4"
   sodipodi:docname="StatefullSet.svg"
   inkscape:version="0.92.2 5c3e80d, 2017-08-06">
  <metadata
     id="metadata10">
    <rdf:RDF>
      <cc:Work
         rdf:about="">
        <dc:format>image/svg+xml</dc:format>
        <dc:type
           rdf:resource="http://purl.org/dc/dcmitype/StillImage" />
        <dc:title></dc:title>
      </cc:Work>
    </rdf:RDF>
  </metadata>
  <defs
     id="defs8">
    <inkscape:perspective
       sodipodi:type="inkscape:persp3d"
       inkscape:vp_x="30 : 9.661017 : 1"
       inkscape:vp_y="0 : 1000 : 0"
       inkscape:vp_z="54 : 9.661017 : 1"
       inkscape:persp3d-origin="42 : 5.661017 : 1"
       id="perspective817" />
  </defs>
  <sodipodi:namedview
     pagecolor="#ffffff"
     bordercolor="#666666"
     borderopacity="1"
     objecttolerance="10"
     gridtolerance="10"
     guidetolerance="10"
     inkscape:pageopacity="0"
     inkscape:pageshadow="2"
     inkscape:window-width="1250"
     inkscape:window-height="820"
     id="namedview6"
     showgrid="false"
     inkscape:zoom="13.906433"
     inkscape:cx="2.3863042"
     inkscape:cy="12.130896"
     inkscape:window-x="291"
     inkscape:window-y="65"
     inkscape:window-maximized="0"
     inkscape:current-layer="svg4" />
  <g
     transform="translate(31.428931,-5.8965515)"
     id="g883">
    <path
       style="opacity:1;fill:#8080ff;fill-opacity:1;stroke:#0000ff;stroke-width:0.2;stroke-linecap:butt;stroke-linejoin:round;stroke-miterlimit:4;stroke-dasharray:none;stroke-dashoffset:0;stroke-opacity:1;paint-order:normal"
       d="m -17.60666,10.05525 0.01291,4.013109 c -5.03e-4,0.674106 1.365515,1.220688 3.050781,1.220703 1.685266,-1.5e-5 3.051284,-0.546597 3.050781,-1.220703 l 0.0013,-4.051244 z"
       id="path879"
       inkscape:connector-curvature="0"
       sodipodi:nodetypes="cccccc" />
    <ellipse
       ry="1.2203389"
       rx="3.0508475"
       cy="10.067797"
       cx="-14.542373"
       id="ellipse881"
       style="opacity:1;fill:#8080ff;fill-opacity:1;stroke:#0000ff;stroke-width:0.2;stroke-linecap:butt;stroke-linejoin:round;stroke-miterlimit:4;stroke-dasharray:none;stroke-dashoffset:0;stroke-opacity:1;paint-order:normal" />
  </g>
  <path
     d="M 24,12 C 24,18.627 18.627,24 12,24 5.373,24 0,18.627 0,12 H 2 C 2,17.514 6.486,22 12,22 17.514,22 22,17.514 22,12 22,6.486 17.514,2 12,2 9.223,2 6.713,3.141 4.901,4.977 L 6.962,7.038 0,8.392 1.305,1.379 3.484,3.559 C 5.656,1.363 8.666,0 12,0 18.627,0 24,5.373 24,12 Z"
     id="path2"
     inkscape:connector-curvature="0"
     sodipodi:nodetypes="ssccssscccccss"
     style="fill:#0000ff" />
  <g
     inkscape:groupmode="layer"
     id="layer1"
     inkscape:label="Layer 1" />
  <g
     id="g853"
     transform="translate(20.930193,4.7460048)">
    <path
       sodipodi:nodetypes="cccccc"
       inkscape:connector-curvature="0"
       id="ellipse837"
       d="m -17.60666,10.05525 0.01291,4.013109 c -5.03e-4,0.674106 1.365515,1.220688 3.050781,1.220703 1.685266,-1.5e-5 3.051284,-0.546597 3.050781,-1.220703 l 0.0013,-4.051244 z"
       style="opacity:1;fill:#8080ff;fill-opacity:1;stroke:#0000ff;stroke-width:0.2;stroke-linecap:butt;stroke-linejoin:round;stroke-miterlimit:4;stroke-dasharray:none;stroke-dashoffset:0;stroke-opacity:1;paint-order:normal" />
    <ellipse
       style="opacity:1;fill:#8080ff;fill-opacity:1;stroke:#0000ff;stroke-width:0.2;stroke-linecap:butt;stroke-linejoin:round;stroke-miterlimit:4;stroke-dasharray:none;stroke-dashoffset:0;stroke-opacity:1;paint-order:normal"
       id="ellipse835"
       cx="-14.542373"
       cy="10.067797"
       rx="3.0508475"
       ry="1.2203389" />
  </g>
  <g
     transform="translate(20.930193,4.7460048)"
     id="g859">
    <path
       style="opacity:1;fill:#8080ff;fill-opacity:1;stroke:#0000ff;stroke-width:0.2;stroke-linecap:butt;stroke-linejoin:round;stroke-miterlimit:4;stroke-dasharray:none;stroke-dashoffset:0;stroke-opacity:1;paint-order:normal"
       d="m -17.60666,10.05525 0.01291,4.013109 c -5.03e-4,0.674106 1.365515,1.220688 3.050781,1.220703 1.685266,-1.5e-5 3.051284,-0.546597 3.050781,-1.220703 l 0.0013,-4.051244 z"
       id="path855"
       inkscape:connector-curvature="0"
       sodipodi:nodetypes="cccccc" />
    <ellipse
       ry="1.2203389"
       rx="3.0508475"
       cy="10.067797"
       cx="-14.542373"
       id="ellipse857"
       style="opacity:1;fill:#8080ff;fill-opacity:1;stroke:#0000ff;stroke-width:0.2;stroke-linecap:butt;stroke-linejoin:round;stroke-miterlimit:4;stroke-dasharray:none;stroke-dashoffset:0;stroke-opacity:1;paint-order:normal" />
  </g>
  <g
     id="g889"
     transform="translate(28.804246,-3.2359117)">
    <path
       sodipodi:nodetypes="cccccc"
       inkscape:connector-curvature="0"
       id="path885"
       d="m -17.60666,10.05525 0.01291,4.013109 c -5.03e-4,0.674106 1.365515,1.220688 3.050781,1.220703 1.685266,-1.5e-5 3.051284,-0.546597 3.050781,-1.220703 l 0.0013,-4.051244 z"
       style="opacity:1;fill:#8080ff;fill-opacity:1;stroke:#0000ff;stroke-width:0.2;stroke-linecap:butt;stroke-linejoin:round;stroke-miterlimit:4;stroke-dasharray:none;stroke-dashoffset:0;stroke-opacity:1;paint-order:normal" />
    <ellipse
       style="opacity:1;fill:#8080ff;fill-opacity:1;stroke:#0000ff;stroke-width:0.2;stroke-linecap:butt;stroke-linejoin:round;stroke-miterlimit:4;stroke-dasharray:none;stroke-dashoffset:0;stroke-opacity:1;paint-order:normal"
       id="ellipse887"
       cx="-14.542373"
       cy="10.067797"
       rx="3.0508475"
       ry="1.2203389" />
  </g>
  <g
     id="g877"
     transform="translate(26.179562,-0.57527346)">
    <path
       sodipodi:nodetypes="cccccc"
       inkscape:connector-curvature="0"
       id="path873"
       d="m -17.60666,10.05525 0.01291,4.013109 c -5.03e-4,0.674106 1.365515,1.220688 3.050781,1.220703 1.685266,-1.5e-5 3.051284,-0.546597 3.050781,-1.220703 l 0.0013,-4.051244 z"
       style="opacity:1;fill:#8080ff;fill-opacity:1;stroke:#0000ff;stroke-width:0.2;stroke-linecap:butt;stroke-linejoin:round;stroke-miterlimit:4;stroke-dasharray:none;stroke-dashoffset:0;stroke-opacity:1;paint-order:normal" />
    <ellipse
       style="opacity:1;fill:#8080ff;fill-opacity:1;stroke:#0000ff;stroke-width:0.2;stroke-linecap:butt;stroke-linejoin:round;stroke-miterlimit:4;stroke-dasharray:none;stroke-dashoffset:0;stroke-opacity:1;paint-order:normal"
       id="ellipse875"
       cx="-14.542373"
       cy="10.067797"
       rx="3.0508475"
       ry="1.2203389" />
  </g>
  <g
     transform="translate(23.554878,2.0853656)"
     id="g871">
    <path
       style="opacity:1;fill:#8080ff;fill-opacity:1;stroke:#0000ff;stroke-width:0.2;stroke-linecap:butt;stroke-linejoin:round;stroke-miterlimit:4;stroke-dasharray:none;stroke-dashoffset:0;stroke-opacity:1;paint-order:normal"
       d="m -17.60666,10.05525 0.01291,4.013109 c -5.03e-4,0.674106 1.365515,1.220688 3.050781,1.220703 1.685266,-1.5e-5 3.051284,-0.546597 3.050781,-1.220703 l 0.0013,-4.051244 z"
       id="path867"
       inkscape:connector-curvature="0"
       sodipodi:nodetypes="cccccc" />
    <ellipse
       ry="1.2203389"
       rx="3.0508475"
       cy="10.067797"
       cx="-14.542373"
       id="ellipse869"
       style="opacity:1;fill:#8080ff;fill-opacity:1;stroke:#0000ff;stroke-width:0.2;stroke-linecap:butt;stroke-linejoin:round;stroke-miterlimit:4;stroke-dasharray:none;stroke-dashoffset:0;stroke-opacity:1;paint-order:normal" />
  </g>
  <g
     id="g865"
     transform="translate(20.930193,4.7460048)">
    <path
       sodipodi:nodetypes="cccccc"
       inkscape:connector-curvature="0"
       id="path861"
       d="m -17.60666,10.05525 0.01291,4.013109 c -5.03e-4,0.674106 1.365515,1.220688 3.050781,1.220703 1.685266,-1.5e-5 3.051284,-0.546597 3.050781,-1.220703 l 0.0013,-4.051244 z"
       style="opacity:1;fill:#8080ff;fill-opacity:1;stroke:#0000ff;stroke-width:0.2;stroke-linecap:butt;stroke-linejoin:round;stroke-miterlimit:4;stroke-dasharray:none;stroke-dashoffset:0;stroke-opacity:1;paint-order:normal" />
    <ellipse
       style="opacity:1;fill:#8080ff;fill-opacity:1;stroke:#0000ff;stroke-width:0.2;stroke-linecap:butt;stroke-linejoin:round;stroke-miterlimit:4;stroke-dasharray:none;stroke-dashoffset:0;stroke-opacity:1;paint-order:normal"
       id="ellipse863"
       cx="-14.542373"
       cy="10.067797"
       rx="3.0508475"
       ry="1.2203389" />
  </g>
  <g
     inkscape:groupmode="layer"
     id="layer2"
     inkscape:label="cer" />
</svg>
